<?xml version="1.0" standalone="no"?>
<!DOCTYPE svg PUBLIC "-//W3C//DTD SVG 1.1//EN" "http://www.w3.org/Graphics/SVG/1.1/DTD/svg11.dtd" >
<svg xmlns="http://www.w3.org/2000/svg" xmlns:xlink="http://www.w3.org/1999/xlink" version="1.1">
<metadata></metadata>
<defs>
<font id="the_bold_fontbold" horiz-adv-x="1327" >
<font-face units-per-em="2048" ascent="1536" descent="-512" />
<missing-glyph horiz-adv-x="348" />
<glyph horiz-adv-x="0" />
<glyph unicode="&#xd;" horiz-adv-x="348" />
<glyph horiz-adv-x="0" />
<glyph horiz-adv-x="0" />
<glyph unicode=" "  horiz-adv-x="348" />
<glyph unicode="&#x09;" horiz-adv-x="348" />
<glyph unicode="&#xa0;" horiz-adv-x="348" />
<glyph unicode="!" horiz-adv-x="563" d="M102 178q0 74 52.5 126t126.5 52q76 0 128 -52t52 -126t-52.5 -126t-127.5 -52q-74 0 -126.5 52t-52.5 126zM109 518v1014h346v-1014h-346z" />
<glyph unicode="&#x22;" horiz-adv-x="993" d="M102 813v688h347v-688h-347zM545 813v688h346v-688h-346z" />
<glyph unicode="#" horiz-adv-x="1546" d="M102 647l236 2l27 211h-193l-2 346h240l45 334h348l-43 -332h141l45 332h348l-43 -330h191l2 -346l-238 -2l-26 -211h194l2 -346h-241l-41 -305h-351l41 303h-143l-39 -303h-350l41 303l-189 -2zM688 649l141 2l27 211l-141 -2z" />
<glyph unicode="$" horiz-adv-x="1083" d="M102 549l347 -2q0 -35 15 -54.5t28 -27.5q10 -6 35.5 -13.5t60.5 9.5q31 14 39 34.5t8 32.5q0 14 -8.5 35t-38.5 35q-16 8 -37 14t-43 15q-41 12 -86 29.5t-92 45.5q-63 39 -106.5 98.5t-62 128t-12 140.5t40.5 139q66 127 197 178v134h309v-134q113 -45 179.5 -140 t66.5 -216h-346q0 4 -4 17.5t-33 19.5q-6 2 -28.5 2t-32.5 -20q-6 -12 -2 -27.5t18 -26.5q18 -10 45 -19t55 -20q27 -10 56.5 -19.5t60.5 -23.5q117 -53 183.5 -155.5t66.5 -229.5q0 -125 -66.5 -227t-183.5 -156q-8 -4 -16 -7t-19 -7v-131h-309v133q-41 14 -84 41 q-94 59 -147.5 158.5t-53.5 216.5z" />
<glyph unicode="%" horiz-adv-x="1845" d="M106 1112q-10 74 9.5 142.5t61.5 124t103.5 91t135.5 46.5q12 2 24.5 3t22.5 1q68 0 128 -23.5t108.5 -65.5t80 -99.5t39.5 -125.5q10 -74 -9 -142.5t-61 -123.5t-103.5 -92t-135.5 -45q-12 -2 -24.5 -3t-22.5 -1q-68 0 -128.5 23.5t-108.5 64.5t-79.5 99t-40.5 126z M201 219l1188 1309l258 -232l-1190 -1310zM391 1149q4 -27 23.5 -44.5t48.5 -17.5h8q31 4 48.5 28t12.5 52q-4 29 -23.5 46.5t-45.5 17.5h-10q-29 -4 -47.5 -28.5t-14.5 -53.5zM1024 315q-10 74 10.5 142.5t62.5 124t103.5 91.5t134.5 46q10 2 22.5 3t24.5 1 q68 0 128.5 -23.5t107.5 -65.5t79 -99t42 -125q10 -74 -9.5 -142.5t-61.5 -124t-103.5 -92.5t-134.5 -45q-12 -2 -24.5 -3t-25.5 -1q-68 0 -128 23.5t-107 64.5t-80 99.5t-41 125.5zM1311 352q4 -27 23.5 -44t45.5 -17h11q29 4 47 27.5t14 52.5t-23.5 46t-46.5 17 q-6 0 -10 -2q-29 -4 -47 -27.5t-14 -52.5z" />
<glyph unicode="&#x26;" horiz-adv-x="1443" d="M104.5 464q6.5 79 39 146.5t84 126t110.5 107.5q-29 29 -54.5 64.5t-43.5 80.5q-37 88 -30 181.5t58 177.5q53 86 138.5 137t185.5 59q121 8 223.5 -46t161.5 -159q57 -100 53 -212.5t-69 -208.5q-23 -33 -51.5 -62t-61.5 -57l493 -549l-258 -232l-112 125 q-86 -66 -192.5 -104.5t-215.5 -38.5h-21.5t-21.5 2q-141 10 -241.5 86t-147.5 205q-33 92 -26.5 171zM459 410q10 -27 27.5 -42.5t60.5 -19.5q45 -4 96 11.5t94 41.5l-166 187q-72 -57 -99.5 -98t-12.5 -80zM555 1136.5q2 -12.5 4 -16.5q4 -10 21.5 -28.5t33.5 -34.5v-2 q43 35 60 61q4 4 9 17.5t-7 33.5q-4 4 -16 17.5t-37 13.5h-5q-20 -2 -33.5 -12t-21.5 -21q-10 -16 -8 -28.5z" />
<glyph unicode="'" horiz-adv-x="550" d="M102 813v688h347v-688h-347z" />
<glyph unicode="(" horiz-adv-x="831" d="M102 766q0 207 52.5 398.5t148.5 359.5h418q-129 -156 -200.5 -348.5t-71.5 -409.5q0 -219 74.5 -414.5t205.5 -351.5h-422q-98 170 -151.5 362.5t-53.5 403.5z" />
<glyph unicode=")" horiz-adv-x="831" d="M102 1524h422q98 -170 151.5 -362.5t53.5 -403.5q0 -207 -52 -398.5t-149 -359.5h-419q129 156 200.5 348.5t71.5 409.5q0 219 -74 414.5t-205 351.5z" />
<glyph unicode="*" horiz-adv-x="1048" d="M102 903l177 176l-177 176l246 246l176 -176l176 176l246 -246l-176 -176l176 -176l-246 -246l-176 177l-176 -177z" />
<glyph unicode="+" horiz-adv-x="1191" d="M102 580v346h320v319h346v-319l322 -2v-346h-322v-320h-346v320z" />
<glyph unicode="," horiz-adv-x="522" d="M0 -219l166 405h295l-166 -405h-295z" />
<glyph unicode="-" horiz-adv-x="901" d="M102 580v346l717 -2v-346z" />
<glyph unicode="." horiz-adv-x="466" d="M55 178q0 74 52.5 126t125.5 52q74 0 126.5 -52t52.5 -126t-52.5 -126t-126.5 -52t-126 52t-52 126z" />
<glyph unicode="/" horiz-adv-x="753" d="M102 0l199 1522h350l-198 -1522h-351z" />
<glyph unicode="0" horiz-adv-x="1505" d="M0 754q0 156 59.5 293t161 238t238.5 160.5t293 59.5t293 -59.5t239 -160.5t161.5 -238.5t59.5 -292.5q0 -156 -59.5 -293t-161.5 -238.5t-239.5 -161t-292.5 -59.5q-156 0 -293 59.5t-238.5 161t-161 238.5t-59.5 293zM346 754q0 -84 32 -158t87 -129t129 -87t158 -32 t157.5 32t129 87t87 129t31.5 158t-31.5 157.5t-87 129t-129 87t-157.5 31.5t-158 -31.5t-129 -87t-87 -129t-32 -157.5z" />
<glyph unicode="1" horiz-adv-x="921" d="M102 1051l371 456h346v-1507h-346v958l-102 -127z" />
<glyph unicode="2" horiz-adv-x="1212" d="M102 0v373q150 90 272 182t208 177t133 154.5t47 112.5q0 66 -45 111t-111 45t-110.5 -45t-44.5 -111h-349q0 104 40 195.5t108.5 160t160 108.5t195.5 40t195.5 -40t160 -108.5t108.5 -159.5t40 -196q0 -297 -442 -653h442v-346h-1008z" />
<glyph unicode="3" horiz-adv-x="1210" d="M102 504h347q0 -66 46 -112t111 -46q66 0 111 46t45 112q0 63 -45 107t-111 44h-227v344l166 164h-408v346h955v-292l-269 -265q63 -31 115.5 -77t90.5 -104t58.5 -125.5t20.5 -141.5q0 -104 -40 -196.5t-107.5 -160t-158.5 -107.5t-196 -40q-104 0 -196.5 40t-160 107.5 t-107.5 159.5t-40 197z" />
<glyph unicode="4" horiz-adv-x="1155" d="M102 266v346l605 895h346v-1507h-346v266h-605zM520 612h187v275z" />
<glyph unicode="5" horiz-adv-x="1210" d="M102 504h347q0 -66 46 -112t111 -46q66 0 111 46t45 112q0 63 -45 106t-111 43h-504v856h938v-346h-591v-164h157q104 0 195.5 -38.5t159 -106.5t107.5 -158t40 -192q0 -104 -40 -196.5t-107.5 -160t-159 -107.5t-195.5 -40t-196.5 40t-160 107.5t-107.5 159.5t-40 197z " />
<glyph unicode="6" horiz-adv-x="1222" d="M68 545q0 123 53 233l366 727h390l-213 -420q104 -10 193 -55t155.5 -117.5t104.5 -167t38 -200.5q0 -113 -43 -212.5t-116.5 -173t-172 -116.5t-211.5 -43t-212 43t-172.5 116.5t-116.5 173t-43 212.5zM414 545q0 -41 15 -77t43 -62.5t63.5 -42t76.5 -15.5 q82 0 139.5 57.5t57.5 139.5q0 41 -15.5 76.5t-42 63.5t-62.5 43t-77 15t-76.5 -15t-63.5 -43t-43 -63.5t-15 -76.5z" />
<glyph unicode="7" horiz-adv-x="1146" d="M51 1157v346h1049l-619 -1503h-375l476 1157h-531z" />
<glyph unicode="8" horiz-adv-x="1067" d="M27 506q0 104 39.5 196.5t109.5 161.5q-29 49 -46 104.5t-17 116.5q0 86 32.5 163t90 134.5t134 90t162.5 32.5t163 -32.5t134.5 -90t90 -134.5t32.5 -163q0 -61 -17 -116.5t-46 -104.5q70 -70 109.5 -162t39.5 -196t-40 -196.5t-108.5 -161t-160.5 -108.5t-197 -40 q-104 0 -196 40t-161 108.5t-108.5 160.5t-39.5 197zM373 506q0 -66 46.5 -113t112.5 -47t113 47t47 113t-47 113t-113 47t-112.5 -47.5t-46.5 -112.5zM459 1085q0 -29 21.5 -50t51.5 -21q29 0 50.5 21.5t21.5 49.5q0 31 -21.5 52.5t-50.5 21.5q-31 0 -52 -21.5t-21 -52.5z " />
<glyph unicode="9" horiz-adv-x="1230" d="M70 961q0 113 43 212t116.5 172.5t173 116.5t211.5 43q113 0 211.5 -43t172 -116.5t116.5 -173t43 -211.5q0 -121 -51 -234l-369 -727h-387l211 420q-102 10 -192 56t-157 118t-104.5 166t-37.5 201zM416 961q0 -41 15 -77t43 -62.5t63.5 -42t76.5 -15.5q82 0 139.5 57.5 t57.5 139.5q0 41 -15.5 76.5t-42 63t-62.5 43t-77 15.5t-76.5 -15.5t-63.5 -43t-43 -63.5t-15 -76z" />
<glyph unicode=":" horiz-adv-x="563" d="M102 506q0 74 52.5 126t126.5 52q76 0 128 -52t52 -126q0 -76 -52.5 -128t-127.5 -52q-74 0 -126.5 52t-52.5 128zM102 997q0 76 52.5 128.5t126.5 52.5q76 0 128 -52.5t52 -128.5q0 -74 -52 -126t-128 -52q-74 0 -126.5 52.5t-52.5 125.5z" />
<glyph unicode=";" horiz-adv-x="665" d="M102 276l166 406h295l-166 -406h-295zM195 997q0 74 52 126.5t128 52.5q74 0 126 -52.5t52 -126.5q0 -76 -52 -128t-126 -52q-76 0 -128 52.5t-52 127.5z" />
<glyph unicode="&#x3c;" horiz-adv-x="1241" d="M102 590v323l895 400l142 -316l-549 -245l549 -246l-142 -316z" />
<glyph unicode="=" horiz-adv-x="1191" d="M102 299v346h988v-346h-988zM102 858v346h988v-346h-988z" />
<glyph unicode="&#x3e;" horiz-adv-x="1241" d="M102 506l549 246l-549 245l142 316l895 -400v-323l-895 -400z" />
<glyph unicode="?" horiz-adv-x="1196" d="M102 903v105q0 139 67 255.5t183 188.5q113 66 239 69t240 -59q115 -61 184 -164.5t77 -226.5q10 -131 -53.5 -251t-188.5 -210q-29 -20 -49.5 -65t-20.5 -86h-346q0 61 15.5 123.5t43 120t67.5 105.5t87 83q104 76 98 158q-2 33 -23.5 61.5t-55.5 46.5q-43 25 -80 16.5 t-56 -20.5q-39 -23 -60 -60.5t-21 -84.5v-105h-347zM434 174q0 74 51 125t123 51t123 -51t51 -125q0 -72 -51 -123t-123 -51t-123 51t-51 123z" />
<glyph unicode="@" horiz-adv-x="1576" d="M31 745q-4 154 52 292.5t161 248.5q106 111 242.5 169t289.5 61q156 2 295 -55.5t244.5 -159t167 -238.5t65.5 -293q0 -72 -28.5 -132t-76.5 -105.5t-110.5 -72t-132.5 -26.5h-22.5t-22.5 2q-74 10 -133 47q-96 -82 -227 -86q-12 0 -24.5 1t-22.5 1q-68 8 -125.5 39 t-100.5 78t-67.5 107.5t-26.5 128.5q0 76 26.5 142.5t75 115.5t114 78.5t140.5 29.5h22.5t24.5 -2q66 -8 123.5 -37.5t100.5 -77t68.5 -109t25.5 -128.5v-2q4 -39 41 -39q18 0 29.5 12.5t11.5 30.5q-2 90 -38 170t-97.5 138.5t-142.5 92t-171 31.5q-182 -4 -309 -133 q-61 -63 -94 -144t-31 -169q2 -90 36 -169t99 -141q63 -61 143.5 -94t170.5 -31h4q6 0 27.5 2.5t54 11.5t74.5 26.5t90 45.5l170 -268q-78 -49 -148 -75.5t-126 -40t-94 -16.5t-50 -3q-49 0 -99 6q-254 29 -438 207q-111 106 -169 242.5t-62 289.5zM717 758 q2 -29 19.5 -47.5t43.5 -22.5q5 -2 11 -2q29 2 50 23.5t19 50.5q0 27 -17.5 46t-43.5 23h-11q-29 0 -50 -21.5t-21 -49.5z" />
<glyph unicode="A" d="M2 0l512 1503h328l485 -1503h-364l-60 182h-473l-61 -182h-367zM549 528h244l-119 365z" />
<glyph unicode="B" horiz-adv-x="1140" d="M102 0v1509l400 -2q94 0 178 -32.5t147.5 -89t99.5 -131t36 -160.5q-1 -103 -52 -189q96 -72 151.5 -173t55.5 -220q0 -106 -45 -199.5t-124 -163t-183 -109.5t-223 -40h-441zM449 348h94q45 0 87 13.5t73.5 36t50 52t18.5 62.5t-18.5 63.5t-50 53t-73.5 36t-87 13.5h-37 h-4h-53v-330zM449 1024h55q51 2 81.5 24.5t30.5 45.5q0 20 -30.5 43.5t-83.5 23.5h-53v-137z" />
<glyph unicode="C" horiz-adv-x="1284" d="M0 754q0 154 56.5 290t162.5 242q111 111 250 166t283.5 55t283 -55t248.5 -166l-244 -244q-59 59 -135 89t-153.5 30t-152.5 -29.5t-134 -89.5q-57 -59 -88 -132.5t-31 -155.5t31 -155t88 -132q59 -59 134 -89t152.5 -30t153.5 30t135 89l244 -246q-111 -111 -248 -165 t-284 -54q-145 0 -283.5 54.5t-249.5 164.5q-106 109 -162.5 245t-56.5 288z" />
<glyph unicode="D" horiz-adv-x="1099" d="M55 0v1511h346v-2q150 -8 282 -71.5t229.5 -166t153.5 -237.5t56 -289q0 -152 -55 -283.5t-152.5 -232t-228.5 -161t-285 -68.5h-346zM401 348q80 8 148.5 42t119 86t79 122t28.5 147q0 80 -28.5 153t-80 129t-119 92t-147.5 44v-815z" />
<glyph unicode="E" horiz-adv-x="1120" d="M80 0v1501l964 2v-346h-618v-227h502v-346h-502v-238h618v-346h-964z" />
<glyph unicode="F" horiz-adv-x="1050" d="M102 0v1503h908v-346h-561v-227h444v-346h-444v-584h-347z" />
<glyph unicode="G" horiz-adv-x="1386" d="M-14 751.5q0 145.5 54 285t165 249.5q111 111 250 166t284.5 55t284.5 -55t250 -166l-246 -246q-59 59 -135 89t-153.5 30t-153.5 -29.5t-135 -89.5q-59 -59 -90 -135t-31 -153.5t30.5 -153.5t90.5 -135q53 -53 119.5 -83t137.5 -35q14 -1 29 -1q56 0 111 14 q70 19 129 62v76h-301v346h649v-842h-348v37q-57 -20 -117.5 -29.5t-120.5 -9.5q-145 0 -284.5 55.5t-249.5 165.5q-111 111 -165 249t-54 283.5z" />
<glyph unicode="H" horiz-adv-x="1265" d="M68 0v1503h346v-590h434v590h346v-1503h-346v567h-434v-567h-346z" />
<glyph unicode="I" horiz-adv-x="550" d="M102 0v1505h347v-1505h-347z" />
<glyph unicode="J" horiz-adv-x="1226" d="M-16 578l346 -5q0 -92 63 -159q68 -68 160 -68q45 0 86 16.5t71.5 47t49 71.5t18.5 88v959h346v-961q0 -119 -46 -222t-122.5 -180t-180 -121t-220.5 -44h-6q-117 2 -219.5 46t-184.5 126q-80 82 -121 186q-40 98 -40 209v11z" />
<glyph unicode="K" horiz-adv-x="1351" d="M102 0v1505h347v-475l485 475h498l-773 -753l773 -752h-500l-483 473v-473h-347z" />
<glyph unicode="L" horiz-adv-x="1036" d="M102 0v1505h347v-1159h548v-346h-895z" />
<glyph unicode="M" horiz-adv-x="1552" d="M2 0l96 1505h357l329 -942l322 942h356l88 -1505h-346l-37 614l-209 -614h-346l-221 639l-41 -639h-348z" />
<glyph unicode="N" horiz-adv-x="1402" d="M102 0v1499h377l490 -874v878h346v-1503h-375l-491 877v-877h-347z" />
<glyph unicode="O" horiz-adv-x="1505" d="M0 754q0 156 59.5 293t161 238t238.5 160.5t293 59.5t293 -59.5t239 -160.5t161.5 -238.5t59.5 -292.5q0 -156 -59.5 -293t-161.5 -238.5t-239.5 -161t-292.5 -59.5q-156 0 -293 59.5t-238.5 161t-161 238.5t-59.5 293zM346 754q0 -84 32 -158t87 -129t129 -87t158 -32 t157.5 32t129 87t87 129t31.5 158t-31.5 157.5t-87 129t-129 87t-157.5 31.5t-158 -31.5t-129 -87t-87 -129t-32 -157.5z" />
<glyph unicode="P" horiz-adv-x="1171" d="M102 0v1503h347q129 -2 241.5 -53t197.5 -137t133 -200t48 -243t-48 -242.5t-133 -199.5t-197.5 -136t-241.5 -52v-240h-347zM449 586q57 2 107 25.5t87 61.5t58.5 89t21.5 108t-21.5 108.5t-58.5 89.5t-87 61.5t-107 25.5v-569z" />
<glyph unicode="Q" horiz-adv-x="1456" d="M-23 752q0 156 59.5 292t161 237t237.5 160.5t292 59.5t292 -59.5t237.5 -160.5t161 -237t59.5 -292q0 -154 -57.5 -288t-157.5 -237l88 -127l-285 -196l-96 137q-57 -18 -117.5 -28.5t-124.5 -10.5q-156 0 -292 59.5t-237.5 161t-161 237.5t-59.5 292zM324 752 q0 -84 31.5 -158t86 -128t128 -86t157.5 -32q20 0 31 2l-176 256l286 197l191 -279q35 47 53 105.5t18 122.5q0 82 -31.5 155.5t-86 129t-128 87t-157.5 31.5t-157.5 -31.5t-128 -87t-86 -129t-31.5 -155.5z" />
<glyph unicode="R" horiz-adv-x="1255" d="M102 0v1499h347q129 -2 241.5 -47t197.5 -121t133 -176t48 -215q0 -121 -51 -224.5t-144 -178.5l332 -537h-407l-242 389q-27 -4 -53.5 -6t-54.5 -4v-379h-347zM449 727q55 2 105 19.5t88 46t59.5 66.5t21.5 81t-21.5 80t-59.5 65.5t-88 46t-105 19.5v-424z" />
<glyph unicode="S" horiz-adv-x="1099" d="M39 485h346q0 -61 26.5 -95t47.5 -46q37 -25 80 -27h8q39 0 76 17q29 12 46 30.5t26.5 36t11.5 34t2 26.5t-2 26.5t-11.5 35t-27 35.5t-45.5 32q-23 10 -48.5 18t-54.5 19q-51 16 -106.5 36.5t-110.5 55.5q-72 45 -121 113q-48 67 -70 145q-16 59 -17 121q0 20 2 40 q7 83 46 158q37 70 92.5 121t123 81t145.5 36q18 1 36 1q60 0 122 -15q78 -18 141 -58.5t109 -96.5t71 -126t25 -145h-346q0 47 -30 65.5t-52 24.5q-4 0 -19.5 3t-35 0t-40 -14.5t-32.5 -35.5q-10 -20 -10 -42q0 -13 4 -27q10 -36 40 -56q29 -16 64 -29.5t74 -26.5 q35 -10 70.5 -22t72.5 -29q135 -61 212 -180t77 -264q0 -143 -77 -262t-212 -181q-53 -25 -108.5 -36t-110.5 -11q-72 0 -142.5 19.5t-134.5 60.5q-111 72 -172 185.5t-61 248.5z" />
<glyph unicode="T" horiz-adv-x="1009" d="M43 1161v348h922v-348h-289v-1161h-346v1161h-287z" />
<glyph unicode="U" horiz-adv-x="1347" d="M102 565v940h347v-938q0 -90 67 -157q68 -63 160 -64q45 0 86 18.5t71.5 49t47 71.5t16.5 88v932h346v-930v-10q0 -111 -42 -211q-44 -104 -120.5 -182t-180 -124t-220.5 -48h-6q-115 0 -217.5 42t-182.5 120q-82 82 -126 184.5t-46 218.5z" />
<glyph unicode="V" horiz-adv-x="1150" d="M-84 1516h365l288 -930l305 930h367l-512 -1516h-328z" />
<glyph unicode="W" horiz-adv-x="1878" d="M-61 1513h364l279 -837l190 837h340l221 -833l244 833h362l-444 -1513h-342l-199 754l-172 -754h-344z" />
<glyph unicode="X" horiz-adv-x="1357" d="M0 0l469 780l-451 736h406l248 -402l239 402h406l-443 -734l482 -782h-408l-274 446l-271 -446h-403z" />
<glyph unicode="Y" horiz-adv-x="1429" d="M-4 1516h383l309 -654l264 654h375l-616 -1516h-375l174 426z" />
<glyph unicode="Z" horiz-adv-x="1343" d="M33 0l629 1167h-547v349l1126 -3l-629 -1167h621v-346h-1200z" />
<glyph unicode="[" horiz-adv-x="722" d="M102 0v1505h519v-346h-172v-813h172v-346h-519z" />
<glyph unicode="\" horiz-adv-x="753" d="M102 1522h351l198 -1522h-350z" />
<glyph unicode="]" horiz-adv-x="722" d="M102 0v346h172v813h-172v346h519v-1505h-519z" />
<glyph unicode="^" horiz-adv-x="1329" d="M102 606l400 895h323l402 -895l-318 -141l-245 549l-246 -549z" />
<glyph unicode="_" horiz-adv-x="1191" d="M102 0v346h988v-346h-988z" />
<glyph unicode="`" horiz-adv-x="612" d="M61 1505h310l168 -348h-312z" />
<glyph unicode="a" d="M2 0l512 1503h328l485 -1503h-364l-60 182h-473l-61 -182h-367zM549 528h244l-119 365z" />
<glyph unicode="b" horiz-adv-x="1140" d="M102 0v1509l400 -2q94 0 178 -32.5t147.5 -89t99.5 -131t36 -160.5q-1 -103 -52 -189q96 -72 151.5 -173t55.5 -220q0 -106 -45 -199.5t-124 -163t-183 -109.5t-223 -40h-441zM449 348h94q45 0 87 13.5t73.5 36t50 52t18.5 62.5t-18.5 63.5t-50 53t-73.5 36t-87 13.5h-37 h-4h-53v-330zM449 1024h55q51 2 81.5 24.5t30.5 45.5q0 20 -30.5 43.5t-83.5 23.5h-53v-137z" />
<glyph unicode="c" horiz-adv-x="1284" d="M0 754q0 154 56.5 290t162.5 242q111 111 250 166t283.5 55t283 -55t248.5 -166l-244 -244q-59 59 -135 89t-153.5 30t-152.5 -29.5t-134 -89.5q-57 -59 -88 -132.5t-31 -155.5t31 -155t88 -132q59 -59 134 -89t152.5 -30t153.5 30t135 89l244 -246q-111 -111 -248 -165 t-284 -54q-145 0 -283.5 54.5t-249.5 164.5q-106 109 -162.5 245t-56.5 288z" />
<glyph unicode="d" horiz-adv-x="1099" d="M55 0v1511h346v-2q150 -8 282 -71.5t229.5 -166t153.5 -237.5t56 -289q0 -152 -55 -283.5t-152.5 -232t-228.5 -161t-285 -68.5h-346zM401 348q80 8 148.5 42t119 86t79 122t28.5 147q0 80 -28.5 153t-80 129t-119 92t-147.5 44v-815z" />
<glyph unicode="e" horiz-adv-x="1120" d="M80 0v1501l964 2v-346h-618v-227h502v-346h-502v-238h618v-346h-964z" />
<glyph unicode="f" horiz-adv-x="1050" d="M102 0v1503h908v-346h-561v-227h444v-346h-444v-584h-347z" />
<glyph unicode="g" horiz-adv-x="1386" d="M-14 751.5q0 145.5 54 285t165 249.5q111 111 250 166t284.5 55t284.5 -55t250 -166l-246 -246q-59 59 -135 89t-153.5 30t-153.5 -29.5t-135 -89.5q-59 -59 -90 -135t-31 -153.5t30.5 -153.5t90.5 -135q53 -53 119.5 -83t137.5 -35q14 -1 29 -1q56 0 111 14 q70 19 129 62v76h-301v346h649v-842h-348v37q-57 -20 -117.5 -29.5t-120.5 -9.5q-145 0 -284.5 55.5t-249.5 165.5q-111 111 -165 249t-54 283.5z" />
<glyph unicode="h" horiz-adv-x="1265" d="M68 0v1503h346v-590h434v590h346v-1503h-346v567h-434v-567h-346z" />
<glyph unicode="i" horiz-adv-x="550" d="M102 0v1505h347v-1505h-347z" />
<glyph unicode="j" horiz-adv-x="1226" d="M-16 578l346 -5q0 -92 63 -159q68 -68 160 -68q45 0 86 16.5t71.5 47t49 71.5t18.5 88v959h346v-961q0 -119 -46 -222t-122.5 -180t-180 -121t-220.5 -44h-6q-117 2 -219.5 46t-184.5 126q-80 82 -121 186q-40 98 -40 209v11z" />
<glyph unicode="k" horiz-adv-x="1351" d="M102 0v1505h347v-475l485 475h498l-773 -753l773 -752h-500l-483 473v-473h-347z" />
<glyph unicode="l" horiz-adv-x="1036" d="M102 0v1505h347v-1159h548v-346h-895z" />
<glyph unicode="m" horiz-adv-x="1552" d="M2 0l96 1505h357l329 -942l322 942h356l88 -1505h-346l-37 614l-209 -614h-346l-221 639l-41 -639h-348z" />
<glyph unicode="n" horiz-adv-x="1402" d="M102 0v1499h377l490 -874v878h346v-1503h-375l-491 877v-877h-347z" />
<glyph unicode="o" horiz-adv-x="1505" d="M0 754q0 156 59.5 293t161 238t238.5 160.5t293 59.5t293 -59.5t239 -160.5t161.5 -238.5t59.5 -292.5q0 -156 -59.5 -293t-161.5 -238.5t-239.5 -161t-292.5 -59.5q-156 0 -293 59.5t-238.5 161t-161 238.5t-59.5 293zM346 754q0 -84 32 -158t87 -129t129 -87t158 -32 t157.5 32t129 87t87 129t31.5 158t-31.5 157.5t-87 129t-129 87t-157.5 31.5t-158 -31.5t-129 -87t-87 -129t-32 -157.5z" />
<glyph unicode="p" horiz-adv-x="1171" d="M102 0v1503h347q129 -2 241.5 -53t197.5 -137t133 -200t48 -243t-48 -242.5t-133 -199.5t-197.5 -136t-241.5 -52v-240h-347zM449 586q57 2 107 25.5t87 61.5t58.5 89t21.5 108t-21.5 108.5t-58.5 89.5t-87 61.5t-107 25.5v-569z" />
<glyph unicode="q" horiz-adv-x="1456" d="M-23 752q0 156 59.5 292t161 237t237.5 160.5t292 59.5t292 -59.5t237.5 -160.5t161 -237t59.5 -292q0 -154 -57.5 -288t-157.5 -237l88 -127l-285 -196l-96 137q-57 -18 -117.5 -28.5t-124.5 -10.5q-156 0 -292 59.5t-237.5 161t-161 237.5t-59.5 292zM324 752 q0 -84 31.5 -158t86 -128t128 -86t157.5 -32q20 0 31 2l-176 256l286 197l191 -279q35 47 53 105.5t18 122.5q0 82 -31.5 155.5t-86 129t-128 87t-157.5 31.5t-157.5 -31.5t-128 -87t-86 -129t-31.5 -155.5z" />
<glyph unicode="r" horiz-adv-x="1255" d="M102 0v1499h347q129 -2 241.5 -47t197.5 -121t133 -176t48 -215q0 -121 -51 -224.5t-144 -178.5l332 -537h-407l-242 389q-27 -4 -53.5 -6t-54.5 -4v-379h-347zM449 727q55 2 105 19.5t88 46t59.5 66.5t21.5 81t-21.5 80t-59.5 65.5t-88 46t-105 19.5v-424z" />
<glyph unicode="s" horiz-adv-x="1099" d="M39 485h346q0 -61 26.5 -95t47.5 -46q37 -25 80 -27h8q39 0 76 17q29 12 46 30.5t26.5 36t11.5 34t2 26.5t-2 26.5t-11.5 35t-27 35.5t-45.5 32q-23 10 -48.5 18t-54.5 19q-51 16 -106.5 36.5t-110.5 55.5q-72 45 -121 113q-48 67 -70 145q-16 59 -17 121q0 20 2 40 q7 83 46 158q37 70 92.5 121t123 81t145.5 36q18 1 36 1q60 0 122 -15q78 -18 141 -58.5t109 -96.5t71 -126t25 -145h-346q0 47 -30 65.5t-52 24.5q-4 0 -19.5 3t-35 0t-40 -14.5t-32.5 -35.5q-10 -20 -10 -42q0 -13 4 -27q10 -36 40 -56q29 -16 64 -29.5t74 -26.5 q35 -10 70.5 -22t72.5 -29q135 -61 212 -180t77 -264q0 -143 -77 -262t-212 -181q-53 -25 -108.5 -36t-110.5 -11q-72 0 -142.5 19.5t-134.5 60.5q-111 72 -172 185.5t-61 248.5z" />
<glyph unicode="t" horiz-adv-x="1009" d="M43 1161v348h922v-348h-289v-1161h-346v1161h-287z" />
<glyph unicode="u" horiz-adv-x="1347" d="M102 565v940h347v-938q0 -90 67 -157q68 -63 160 -64q45 0 86 18.5t71.5 49t47 71.5t16.5 88v932h346v-930v-10q0 -111 -42 -211q-44 -104 -120.5 -182t-180 -124t-220.5 -48h-6q-115 0 -217.5 42t-182.5 120q-82 82 -126 184.5t-46 218.5z" />
<glyph unicode="v" horiz-adv-x="1150" d="M-84 1516h365l288 -930l305 930h367l-512 -1516h-328z" />
<glyph unicode="w" horiz-adv-x="1878" d="M-61 1513h364l279 -837l190 837h340l221 -833l244 833h362l-444 -1513h-342l-199 754l-172 -754h-344z" />
<glyph unicode="x" horiz-adv-x="1357" d="M0 0l469 780l-451 736h406l248 -402l239 402h406l-443 -734l482 -782h-408l-274 446l-271 -446h-403z" />
<glyph unicode="y" horiz-adv-x="1429" d="M-4 1516h383l309 -654l264 654h375l-616 -1516h-375l174 426z" />
<glyph unicode="z" horiz-adv-x="1337" d="M27 0l628 1167h-546v349l1126 -3l-629 -1167h621v-346h-1200z" />
<glyph unicode="{" horiz-adv-x="722" d="M102 0v1505h519v-346h-172v-813h172v-346h-519z" />
<glyph unicode="|" horiz-adv-x="550" d="M102 0v1522h347v-1522h-347z" />
<glyph unicode="}" horiz-adv-x="722" d="M102 0v346h172v813h-172v346h519v-1505h-519z" />
<glyph unicode="~" horiz-adv-x="1191" d="M102 580v346l988 -2v-346z" />
<glyph unicode="&#xa1;" horiz-adv-x="563" d="M102 1323q0 74 52.5 126t126.5 52t126 -52t52 -126t-52 -126t-126 -52t-126.5 52t-52.5 126zM106 -31v1014h349v-1014h-349z" />
<glyph unicode="&#xa2;" horiz-adv-x="1107" d="M0 762q0 131 49 248.5t141 210.5q63 63 137 104t154 64v131h312v-125q86 -20 166.5 -63.5t148.5 -110.5l-211 -211q-51 51 -115.5 76.5t-132 25.5t-132 -25.5t-116.5 -76.5q-49 -49 -75.5 -112.5t-26.5 -135.5q0 -70 26.5 -133.5t75.5 -114.5q51 -51 116 -76.5 t132.5 -25.5t132 25.5t115.5 76.5l211 -211q-68 -66 -148.5 -109.5t-166.5 -62.5v-131h-314l2 137q-80 23 -153.5 64t-137.5 102q-92 92 -141 211t-49 248z" />
<glyph unicode="&#xa3;" horiz-adv-x="1323" d="M102 0v319l21 11q152 78 194 180h-215v350h127q-25 76 -24 150q0 104 40 197t108.5 162t161.5 109t198 40q104 0 196 -40t162 -109t110 -162t40 -197h-351q0 66 -46 111.5t-111 45.5q-33 0 -62.5 -12t-51 -33.5t-34 -50.5t-12.5 -61q0 -10 7 -36t34 -67q4 -6 24 -47h347 v-350h-289q-4 -16 -7 -34.5t-7 -37.5q-6 -23 -14.5 -44t-18.5 -44h592v-350h-1119z" />
<glyph unicode="&#xa4;" horiz-adv-x="1370" d="M0 293l141 141q-84 145 -84 318q0 170 84 315l-141 143l225 226l144 -142q145 84 315 84q172 0 317 -84l142 142l227 -226l-143 -143q41 -72 63.5 -151.5t22.5 -163.5q0 -86 -22.5 -166t-63.5 -152l143 -141l-227 -227l-144 143q-72 -41 -150.5 -63.5t-164.5 -22.5 q-84 0 -164 22.5t-151 63.5l-144 -143zM371 752q0 -131 92 -224q92 -92 221 -92q131 0 223 92q92 93 92 224q0 129 -92 221t-223 92q-129 0 -221 -92t-92 -221z" />
<glyph unicode="&#xa5;" horiz-adv-x="1204" d="M49 1501h375l178 -399l178 399h375l-256 -573h234v-342h-361v-56h361v-342h-361v-188h-342l2 188l-358 2v340h358v56h-358v342h231z" />
<glyph unicode="&#xa7;" horiz-adv-x="917" d="M63 385h265q0 -47 19.5 -71.5t35.5 -34.5q57 -37 125 -9q45 20 55 51t10 46q0 16 -10 45.5t-55 52.5q-16 8 -36.5 14t-43.5 15q-37 10 -79 25.5t-83 41.5q-55 35 -92 86t-53.5 110.5t-11 122t35.5 119.5q4 10 9.5 17.5t9.5 15.5q-63 78 -75.5 177.5t34.5 191.5 q27 53 70 92t94 60.5t109.5 26.5t119.5 -9q57 -14 106.5 -45t83 -73t53 -95t19.5 -111h-264q0 35 -22.5 49.5t-38.5 18.5q-2 0 -13.5 2t-27 0t-30.5 -10.5t-26 -26.5q-12 -25 -4 -52.5t31 -41.5t49.5 -23.5t54.5 -19.5q27 -8 53.5 -17.5t55.5 -21.5q102 -47 160.5 -136 t58.5 -200q0 -51 -13 -97t-36 -87q70 -94 70 -217q0 -111 -58.5 -200t-161.5 -136q-76 -35 -165 -35q-115 0 -209 61q-84 53 -131.5 139.5t-47.5 188.5zM373 828q8 -28 33 -44q20 -12 46.5 -21t57.5 -20q8 -4 16.5 -6t18.5 -6q4 10 5 20.5t1 16.5q0 16 -10.5 46t-55.5 50 q-16 8 -35.5 14.5t-41.5 14.5q-12 4 -17 4q-4 -4 -7 -8t-5 -10q-14 -23 -6 -51z" />
<glyph unicode="&#xa9;" horiz-adv-x="763" d="M82 1372q0 72 26.5 136.5t77.5 113.5q51 51 117 77.5t133.5 26.5t132 -26.5t117.5 -77.5l-115 -115q-29 27 -63.5 41.5t-71.5 14.5t-72.5 -14.5t-62.5 -41.5q-57 -57 -57 -135t57 -135q27 -29 62.5 -42t72.5 -13t72 13t63 42l115 -115q-53 -53 -117.5 -77.5t-132.5 -24.5 q-70 0 -134 24.5t-116 77.5q-104 104 -104 250z" />
<glyph unicode="&#xad;" horiz-adv-x="901" d="M102 580v346l717 -2v-346z" />
<glyph unicode="&#xae;" horiz-adv-x="677" d="M82 1020v704h162q61 0 114.5 -21.5t93.5 -56t62.5 -82.5t22.5 -102q0 -57 -25 -106t-68 -84l156 -252h-190l-115 184q-25 -6 -51 -6v-178h-162zM244 1362q53 2 91 30.5t38 69.5q0 39 -38 68t-91 31v-199z" />
<glyph unicode="&#xb0;" horiz-adv-x="1118" d="M102 1044q0 94 36 177.5t98.5 146t145.5 98t177 35.5t177 -35.5t145.5 -98t98.5 -145.5t36 -178q0 -94 -36 -177t-98.5 -145.5t-145.5 -98t-177 -35.5t-177 35.5t-145.5 98t-98.5 145.5t-36 177zM449 1044q0 -47 31.5 -78.5t78.5 -31.5t79 31.5t32 78.5t-32 79t-79 32 t-78.5 -31.5t-31.5 -79.5z" />
<glyph unicode="&#xb4;" horiz-adv-x="602" d="M61 1157l166 348h312l-166 -348h-312z" />
<glyph unicode="&#xb5;" horiz-adv-x="1282" d="M70 -473v1999h346v-959q0 -92 67 -155q66 -66 160 -66q45 0 86 18.5t71.5 49t47 71.5t16.5 88v953h346v-1526h-346v45q-102 -45 -217 -45h-6q-117 0 -225 45v-518h-346z" />
<glyph unicode="&#xb6;" horiz-adv-x="1366" d="M72 1079q0 76 25.5 145.5t70.5 125t106.5 94.5t133.5 55v2h346h71h346h109v-348h-109v-1157h-346v1157h-71v-1157h-346v663q-72 16 -133.5 55.5t-106.5 94.5t-70.5 123.5t-25.5 146.5z" />
<glyph unicode="&#xb7;" horiz-adv-x="479" d="M61 750q0 76 52.5 128t126.5 52t126 -52.5t52 -127.5q0 -74 -52 -126.5t-126 -52.5t-126.5 52.5t-52.5 126.5z" />
<glyph unicode="&#xba;" horiz-adv-x="1118" d="M102 1044q0 94 36 177.5t98.5 146t145.5 98t177 35.5t177 -35.5t145.5 -98t98.5 -145.5t36 -178q0 -94 -36 -177t-98.5 -145.5t-145.5 -98t-177 -35.5t-177 35.5t-145.5 98t-98.5 145.5t-36 177zM449 1044q0 -47 31.5 -78.5t78.5 -31.5t79 31.5t32 78.5t-32 79t-79 32 t-78.5 -31.5t-31.5 -79.5z" />
<glyph unicode="&#xbf;" horiz-adv-x="1196" d="M104 451q-8 129 55.5 248.5t186.5 209.5q29 20 50.5 65.5t21.5 86.5h346q0 -61 -15.5 -124t-44 -120t-67.5 -105t-88 -83q-102 -76 -98 -156q6 -70 79 -111q45 -23 81 -14.5t57 19.5q37 23 58.5 61.5t21.5 83.5v104h346v-104q0 -139 -66.5 -255t-183.5 -187 q-59 -35 -122 -52.5t-128 -17.5q-59 0 -117.5 14.5t-111.5 44.5q-115 61 -182.5 165t-78.5 227zM414 1346q0 72 51 123t123 51q37 0 68.5 -13.5t55 -37t38 -55.5t14.5 -68q0 -37 -14.5 -69t-38 -56.5t-55 -38t-68.5 -13.5q-72 0 -123 51.5t-51 125.5z" />
<glyph unicode="&#xc0;" d="M2 0h367l61 182h473l60 -182h364l-485 1503h-330zM344 1974h309l168 -346h-311zM549 528l125 365l117 -365h-242z" />
<glyph unicode="&#xc1;" horiz-adv-x="1325" d="M0 0l510 1503h330l485 -1503h-364l-60 182h-473l-61 -182h-367zM537 1628l165 346h312l-166 -346h-311zM547 528h241l-116 365z" />
<glyph unicode="&#xc2;" horiz-adv-x="1325" d="M0 0l510 1503h330l485 -1503h-364l-60 182h-473l-61 -182h-367zM276 1628l168 346h127h91h92h127l168 -346h-312l-75 156l-74 -156h-312zM547 528h241l-118 365z" />
<glyph unicode="&#xc3;" d="M2 0l510 1503h330l485 -1503h-364l-60 182h-473l-61 -182h-367zM276 1628v309h777v-309h-777zM549 528h242l-117 365z" />
<glyph unicode="&#xc4;" d="M0 0l510 1503h330l485 -1503h-364l-60 182h-473l-61 -182h-367zM274 1628v309h312v-309h-312zM547 528h241l-116 365zM739 1628v309h312v-309h-312z" />
<glyph unicode="&#xc5;" horiz-adv-x="1325" d="M0 0l469 1378q-66 41 -110 106.5t-54 149.5q-10 74 10.5 142.5t62.5 124t103.5 91.5t134.5 46q12 2 23.5 3t24.5 1q68 0 128 -23.5t107 -65.5t79 -99.5t42 -124.5q14 -102 -26 -191.5t-117 -146.5l448 -1391h-364l-60 182h-473l-61 -182h-367zM547 528h244l-119 365z M592 1671q4 -27 23.5 -44t46.5 -17h10q29 4 47 27.5t14 52.5t-23.5 46t-45.5 17q-7 0 -11 -2q-29 -4 -47 -27.5t-14 -52.5z" />
<glyph unicode="&#xc6;" horiz-adv-x="2004" d="M0 0l510 1503h330l485 -1503h-364l-60 182h-473l-61 -182h-367zM547 528h241l-118 365zM961 0v1503h964v-346h-618v-227h501v-346h-501v-238h618v-346h-964z" />
<glyph unicode="&#xc7;" horiz-adv-x="1286" d="M0 748q0 154 56.5 290t164.5 242q111 111 249 166t282.5 55t284 -55t249.5 -166l-246 -244q-59 59 -134 89t-152.5 30t-153.5 -29.5t-135 -89.5q-57 -59 -88 -133t-31 -155q0 -82 31 -155t88 -132q59 -59 135 -89t153.5 -30t152.5 29.5t134 89.5l246 -246 q-94 -92 -207.5 -145.5t-236.5 -69.5l-127 -264h-312l140 289q-90 27 -171 73.5t-151 116.5q-109 109 -165 245t-56 288z" />
<glyph unicode="&#xc8;" horiz-adv-x="1134" d="M88 0h965v346h-619v238h502v346h-502v227h619v346h-965v-1503zM240 1974h311l166 -346h-283z" />
<glyph unicode="&#xc9;" horiz-adv-x="1114" d="M76 0v1503h964v-346h-618v-227h502v-346h-502v-238h618v-346h-964zM395 1628l166 346h311l-167 -346h-310z" />
<glyph unicode="&#xca;" horiz-adv-x="1126" d="M80 0v1503h964v-346h-618v-227h502v-346h-502v-238h618v-346h-964zM176 1628l168 346h127h90h92h127l168 -346h-311l-76 156l-74 -156h-311z" />
<glyph unicode="&#xcb;" horiz-adv-x="1122" d="M82 0v1503h965v-346h-619v-227h502v-346h-502v-238h619v-346h-965zM176 1628v309h309v-309h-309zM641 1628v309h311v-309h-311z" />
<glyph unicode="&#xcc;" horiz-adv-x="702" d="M102 1976h310l168 -348h-312zM254 0h346v1505h-346v-1505z" />
<glyph unicode="&#xcd;" horiz-adv-x="702" d="M102 0v1505h347v-1505h-347zM123 1628l166 348h311l-166 -348h-311z" />
<glyph unicode="&#xce;" horiz-adv-x="980" d="M98 1628l166 346h127h92h92h127l166 -346h-309l-76 156l-73 -156h-312zM311 0v1505h346v-1505h-346z" />
<glyph unicode="&#xcf;" horiz-adv-x="980" d="M102 1630v312h312v-312h-312zM317 2v1505h347v-1505h-347zM569 1630v312h310v-312h-310z" />
<glyph unicode="&#xd1;" horiz-adv-x="1417" d="M102 0v1499h377l490 -874v878h346v-1503h-375l-491 877v-877h-347zM319 1626v311h779v-311h-779z" />
<glyph unicode="&#xd2;" horiz-adv-x="1503" d="M0 752q0 156 59.5 293t161 239t238.5 161.5t293 59.5t293 -59.5t239 -161.5t161.5 -239.5t59.5 -292.5q0 -156 -59.5 -292t-161.5 -238.5t-239.5 -162t-292.5 -59.5q-156 0 -293 59.5t-238.5 162t-161 238.5t-59.5 292zM346 752q0 -84 32 -158t87 -129t129 -87t158 -32 t157.5 32t129 87t87 129t31.5 158t-31.5 158.5t-87 130t-129 87t-157.5 31.5t-158 -31.5t-129 -87t-87 -130t-32 -158.5zM432 1976h311l166 -348h-309z" />
<glyph unicode="&#xd3;" horiz-adv-x="1507" d="M2 752q0 156 59.5 293t161 239t238.5 161.5t293 59.5t293 -59.5t239.5 -161.5t161.5 -239.5t59 -292.5q0 -156 -59 -293t-161.5 -238.5t-240 -161t-292.5 -59.5q-156 0 -293 59.5t-238.5 161t-161 238.5t-59.5 293zM348 752q0 -84 32 -158t87 -129t129 -87t158 -32 t157.5 32t129 87t87 129t31.5 158t-31.5 157.5t-87 129t-129 87t-157.5 31.5t-158 -31.5t-129 -87t-87 -129t-32 -157.5zM596 1628l168 348h309l-166 -348h-311z" />
<glyph unicode="&#xd4;" horiz-adv-x="1505" d="M0 754q0 156 59.5 293t161 238t238.5 160.5t293 59.5t293 -59.5t239 -160.5t161.5 -238.5t59.5 -292.5q0 -156 -59.5 -293t-161.5 -239.5t-239.5 -162t-292.5 -59.5q-156 0 -293 59.5t-238.5 162t-161 239.5t-59.5 293zM346 754q0 -84 32 -158t87 -129t129 -87t158 -32 t157.5 32t129 87t87 129t31.5 158t-31.5 157.5t-87 129t-129 87t-157.5 31.5t-158 -31.5t-129 -87t-87 -129t-32 -157.5zM367 1628l168 348h127h90h92h127l168 -348h-312l-75 158l-74 -158h-311z" />
<glyph unicode="&#xd5;" horiz-adv-x="1503" d="M2 756q0 156 59.5 293t161 238.5t238.5 160.5t293 59t293 -59t238 -160.5t160.5 -239t59.5 -292.5q0 -156 -59.5 -293t-160.5 -238.5t-238.5 -161t-292.5 -59.5q-156 0 -293 59.5t-238.5 161t-161 238.5t-59.5 293zM348 756q0 -84 32 -158t87 -129t129 -87t158 -32 t157.5 32t129 87t87 129t31.5 158t-31.5 157.5t-87 129t-129 87t-157.5 31.5t-158 -31.5t-129 -87t-87 -129t-32 -157.5zM365 1630v312h778v-312h-778z" />
<glyph unicode="&#xd6;" horiz-adv-x="1503" d="M-2 754q0 156 59.5 293t160.5 239.5t238.5 161.5t293.5 59t293 -59t239 -161.5t161.5 -240t59.5 -292.5q0 -156 -59.5 -292t-161.5 -238.5t-239.5 -162t-292.5 -59.5q-156 0 -293.5 59.5t-238.5 162t-160.5 238.5t-59.5 292zM344 754q0 -84 32 -158t87 -129t129 -87 t158 -32t157.5 32t129 87t87 129t31.5 158t-31.5 158.5t-87 130t-129 87t-157.5 31.5t-158 -31.5t-129 -87t-87 -130t-32 -158.5zM362 1630v309h310v-309h-310zM827 1630v309h312v-309h-312z" />
<glyph unicode="&#xd7;" horiz-adv-x="1525" d="M102 246l416 416l-416 413l246 246l416 -416l414 416l245 -246l-415 -416l415 -413l-245 -246l-416 416l-414 -416z" />
<glyph unicode="&#xd8;" horiz-adv-x="1507" d="M7 835.5q13 122.5 67.5 238.5t148.5 210t210 148.5t239 67.5t245.5 -13.5t231.5 -93.5l102 100l244 -244l-100 -102q68 -109 94.5 -231.5t13 -245.5t-68 -239t-148.5 -210t-209.5 -148.5t-238.5 -67.5t-247 13.5t-233 94.5l-100 -103l-246 246l103 100q-68 109 -94.5 233 t-13.5 246.5zM357.5 837.5q-23.5 -114.5 15.5 -221.5l518 519q-109 39 -223.5 14t-200.5 -111t-109.5 -200.5zM616 371q109 -39 223.5 -15.5t200.5 109.5t111 200.5t-14 223.5z" />
<glyph unicode="&#xd9;" horiz-adv-x="1349" d="M102 565v961h347v-959q4 -94 67 -157q68 -63 160 -64q45 0 86 18.5t71.5 49t47 71.5t16.5 88v953h348v-951q0 -117 -43 -221t-119.5 -182t-180 -124t-222.5 -48h-6q-115 0 -217.5 42t-182.5 122q-82 80 -126 182.5t-46 218.5zM365 2025h311l166 -348h-310z" />
<glyph unicode="&#xda;" horiz-adv-x="1349" d="M102 565v961h347v-959q4 -94 67 -157q68 -63 160 -64q45 0 86 18.5t71.5 49t47 71.5t16.5 88v953h348v-951q0 -117 -43 -221t-119.5 -182t-180 -124t-222.5 -48h-6q-115 0 -217.5 42t-182.5 122q-82 80 -126 182.5t-46 218.5zM532 1677l168 348h310l-166 -348h-312z" />
<glyph unicode="&#xdb;" horiz-adv-x="1349" d="M100 567v963h346v-961q0 -88 68 -155q33 -31 74 -48.5t86 -15.5q45 0 86 18.5t71.5 49.5t47 71.5t16.5 88.5v952h346v-952q2 -117 -42 -220.5t-121 -182.5t-180 -125t-220 -46h-6q-115 0 -217.5 42t-182.5 120q-82 80 -126 183.5t-46 217.5zM285 1632l168 346h127h92h90 h127l168 -346h-312l-73 156l-76 -156h-311z" />
<glyph unicode="&#xdc;" horiz-adv-x="1349" d="M102 565v961h347v-959q4 -94 67 -157q68 -63 160 -64q45 0 86 18.5t71.5 49t47 71.5t16.5 88v953h348v-951q0 -117 -43 -221t-119.5 -182t-180 -124t-222.5 -48h-6q-115 0 -217.5 42t-182.5 122q-82 80 -126 182.5t-46 218.5zM285 1675v312h311v-312h-311zM752 1675v312 h309v-312h-309z" />
<glyph unicode="&#xdf;" horiz-adv-x="1216" d="M98 -106v1607l400 -2q94 0 178 -32.5t147.5 -89t99 -131.5t35.5 -161q0 -102 -51 -188q96 -72 151.5 -173t55.5 -220q0 -96 -38 -182t-104.5 -154t-155.5 -112t-193 -58v352q63 18 104 60.5t41 93.5q0 33 -18.5 63.5t-49 53t-72.5 36t-89 13.5h-37h-4h-54l2 -776h-348z M444 1016h56q51 2 81.5 24.5t30.5 44.5q0 20 -30.5 44t-83.5 24h-54v-137z" />
<glyph unicode="&#xe0;" d="M2 0h367l61 182h473l60 -182h364l-485 1503h-330zM344 1974h309l168 -346h-311zM549 528l125 365l117 -365h-242z" />
<glyph unicode="&#xe1;" horiz-adv-x="1325" d="M0 0l510 1503h330l485 -1503h-364l-60 182h-473l-61 -182h-367zM537 1628l165 346h312l-166 -346h-311zM547 528h241l-116 365z" />
<glyph unicode="&#xe2;" horiz-adv-x="1325" d="M0 0l510 1503h330l485 -1503h-364l-60 182h-473l-61 -182h-367zM276 1628l168 346h127h91h92h127l168 -346h-312l-75 156l-74 -156h-312zM547 528h241l-118 365z" />
<glyph unicode="&#xe3;" d="M2 0l510 1503h330l485 -1503h-364l-60 182h-473l-61 -182h-367zM276 1628v309h777v-309h-777zM549 528h242l-117 365z" />
<glyph unicode="&#xe4;" d="M0 0l510 1503h330l485 -1503h-364l-60 182h-473l-61 -182h-367zM274 1628v309h312v-309h-312zM547 528h241l-116 365zM739 1628v309h312v-309h-312z" />
<glyph unicode="&#xe5;" horiz-adv-x="1325" d="M0 0l469 1378q-66 41 -110 106.5t-54 149.5q-10 74 10.5 142.5t62.5 124t103.5 91.5t134.5 46q12 2 23.5 3t24.5 1q68 0 128 -23.5t107 -65.5t79 -99.5t42 -124.5q14 -102 -26 -191.5t-117 -146.5l448 -1391h-364l-60 182h-473l-61 -182h-367zM547 528h244l-119 365z M592 1671q4 -27 23.5 -44t46.5 -17h10q29 4 47 27.5t14 52.5t-23.5 46t-45.5 17q-7 0 -11 -2q-29 -4 -47 -27.5t-14 -52.5z" />
<glyph unicode="&#xe6;" horiz-adv-x="2004" d="M0 0l510 1503h330l485 -1503h-364l-60 182h-473l-61 -182h-367zM547 528h241l-118 365zM961 0v1503h964v-346h-618v-227h501v-346h-501v-238h618v-346h-964z" />
<glyph unicode="&#xe7;" horiz-adv-x="1286" d="M0 748q0 154 56.5 290t164.5 242q111 111 249 166t282.5 55t284 -55t249.5 -166l-246 -244q-59 59 -134 89t-152.5 30t-153.5 -29.5t-135 -89.5q-57 -59 -88 -133t-31 -155q0 -82 31 -155t88 -132q59 -59 135 -89t153.5 -30t152.5 29.5t134 89.5l246 -246 q-94 -92 -207.5 -145.5t-236.5 -69.5l-127 -264h-312l140 289q-90 27 -171 73.5t-151 116.5q-109 109 -165 245t-56 288z" />
<glyph unicode="&#xe8;" horiz-adv-x="1134" d="M88 0h965v346h-619v238h502v346h-502v227h619v346h-965v-1503zM240 1974h311l166 -346h-283z" />
<glyph unicode="&#xe9;" horiz-adv-x="1114" d="M76 0v1503h964v-346h-618v-227h502v-346h-502v-238h618v-346h-964zM395 1628l166 346h311l-167 -346h-310z" />
<glyph unicode="&#xea;" horiz-adv-x="1126" d="M80 0v1503h964v-346h-618v-227h502v-346h-502v-238h618v-346h-964zM176 1628l168 346h127h90h92h127l168 -346h-311l-76 156l-74 -156h-311z" />
<glyph unicode="&#xeb;" horiz-adv-x="1122" d="M82 0v1503h965v-346h-619v-227h502v-346h-502v-238h619v-346h-965zM176 1628v309h309v-309h-309zM641 1628v309h311v-309h-311z" />
<glyph unicode="&#xec;" horiz-adv-x="702" d="M102 1976h310l168 -348h-312zM254 0h346v1505h-346v-1505z" />
<glyph unicode="&#xed;" horiz-adv-x="702" d="M102 0v1505h347v-1505h-347zM123 1628l166 348h311l-166 -348h-311z" />
<glyph unicode="&#xee;" horiz-adv-x="980" d="M98 1628l166 346h127h92h92h127l166 -346h-309l-76 156l-73 -156h-312zM311 0v1505h346v-1505h-346z" />
<glyph unicode="&#xef;" horiz-adv-x="980" d="M102 1630v312h312v-312h-312zM317 2v1505h347v-1505h-347zM569 1630v312h310v-312h-310z" />
<glyph unicode="&#xf1;" horiz-adv-x="1417" d="M102 0v1499h377l490 -874v878h346v-1503h-375l-491 877v-877h-347zM319 1626v311h779v-311h-779z" />
<glyph unicode="&#xf2;" horiz-adv-x="1503" d="M0 752q0 156 59.5 293t161 239t238.5 161.5t293 59.5t293 -59.5t239 -161.5t161.5 -239.5t59.5 -292.5q0 -156 -59.5 -292t-161.5 -238.5t-239.5 -162t-292.5 -59.5q-156 0 -293 59.5t-238.5 162t-161 238.5t-59.5 292zM346 752q0 -84 32 -158t87 -129t129 -87t158 -32 t157.5 32t129 87t87 129t31.5 158t-31.5 158.5t-87 130t-129 87t-157.5 31.5t-158 -31.5t-129 -87t-87 -130t-32 -158.5zM432 1976h311l166 -348h-309z" />
<glyph unicode="&#xf3;" horiz-adv-x="1507" d="M2 752q0 156 59.5 293t161 239t238.5 161.5t293 59.5t293 -59.5t239.5 -161.5t161.5 -239.5t59 -292.5q0 -156 -59 -293t-161.5 -238.5t-240 -161t-292.5 -59.5q-156 0 -293 59.5t-238.5 161t-161 238.5t-59.5 293zM348 752q0 -84 32 -158t87 -129t129 -87t158 -32 t157.5 32t129 87t87 129t31.5 158t-31.5 157.5t-87 129t-129 87t-157.5 31.5t-158 -31.5t-129 -87t-87 -129t-32 -157.5zM596 1628l168 348h309l-166 -348h-311z" />
<glyph unicode="&#xf4;" horiz-adv-x="1505" d="M0 754q0 156 59.5 293t161 238t238.5 160.5t293 59.5t293 -59.5t239 -160.5t161.5 -238.5t59.5 -292.5q0 -156 -59.5 -293t-161.5 -239.5t-239.5 -162t-292.5 -59.5q-156 0 -293 59.5t-238.5 162t-161 239.5t-59.5 293zM346 754q0 -84 32 -158t87 -129t129 -87t158 -32 t157.5 32t129 87t87 129t31.5 158t-31.5 157.5t-87 129t-129 87t-157.5 31.5t-158 -31.5t-129 -87t-87 -129t-32 -157.5zM367 1628l168 348h127h90h92h127l168 -348h-312l-75 158l-74 -158h-311z" />
<glyph unicode="&#xf5;" horiz-adv-x="1503" d="M2 756q0 156 59.5 293t161 238.5t238.5 160.5t293 59t293 -59t238 -160.5t160.5 -239t59.5 -292.5q0 -156 -59.5 -293t-160.5 -238.5t-238.5 -161t-292.5 -59.5q-156 0 -293 59.5t-238.5 161t-161 238.5t-59.5 293zM348 756q0 -84 32 -158t87 -129t129 -87t158 -32 t157.5 32t129 87t87 129t31.5 158t-31.5 157.5t-87 129t-129 87t-157.5 31.5t-158 -31.5t-129 -87t-87 -129t-32 -157.5zM365 1630v312h778v-312h-778z" />
<glyph unicode="&#xf6;" horiz-adv-x="1503" d="M-2 754q0 156 59.5 293t160.5 239.5t238.5 161.5t293.5 59t293 -59t239 -161.5t161.5 -240t59.5 -292.5q0 -156 -59.5 -292t-161.5 -238.5t-239.5 -162t-292.5 -59.5q-156 0 -293.5 59.5t-238.5 162t-160.5 238.5t-59.5 292zM344 754q0 -84 32 -158t87 -129t129 -87 t158 -32t157.5 32t129 87t87 129t31.5 158t-31.5 158.5t-87 130t-129 87t-157.5 31.5t-158 -31.5t-129 -87t-87 -130t-32 -158.5zM362 1630v309h310v-309h-310zM827 1630v309h312v-309h-312z" />
<glyph unicode="&#xf7;" horiz-adv-x="987" d="M0 582v348l987 -2v-346h-987zM315 344q0 74 52.5 126t126.5 52t126 -52t52 -126t-52.5 -126t-125.5 -52q-74 0 -126.5 52t-52.5 126zM315 1167q0 74 52.5 126.5t126.5 52.5t126 -52.5t52 -126.5q0 -76 -52 -128t-126 -52t-126.5 52.5t-52.5 127.5z" />
<glyph unicode="&#xf8;" horiz-adv-x="1507" d="M7 835.5q13 122.5 67.5 238.5t148.5 210t210 148.5t239 67.5t245.5 -13.5t231.5 -93.5l102 100l244 -244l-100 -102q68 -109 94.5 -231.5t13 -245.5t-68 -239t-148.5 -210t-209.5 -148.5t-238.5 -67.5t-247 13.5t-233 94.5l-100 -103l-246 246l103 100q-68 109 -94.5 233 t-13.5 246.5zM357.5 837.5q-23.5 -114.5 15.5 -221.5l518 519q-109 39 -223.5 14t-200.5 -111t-109.5 -200.5zM616 371q109 -39 223.5 -15.5t200.5 109.5t111 200.5t-14 223.5z" />
<glyph unicode="&#xf9;" horiz-adv-x="1349" d="M102 565v961h347v-959q4 -94 67 -157q68 -63 160 -64q45 0 86 18.5t71.5 49t47 71.5t16.5 88v953h348v-951q0 -117 -43 -221t-119.5 -182t-180 -124t-222.5 -48h-6q-115 0 -217.5 42t-182.5 122q-82 80 -126 182.5t-46 218.5zM365 2025h311l166 -348h-310z" />
<glyph unicode="&#xfa;" horiz-adv-x="1349" d="M102 565v961h347v-959q4 -94 67 -157q68 -63 160 -64q45 0 86 18.5t71.5 49t47 71.5t16.5 88v953h348v-951q0 -117 -43 -221t-119.5 -182t-180 -124t-222.5 -48h-6q-115 0 -217.5 42t-182.5 122q-82 80 -126 182.5t-46 218.5zM532 1677l168 348h310l-166 -348h-312z" />
<glyph unicode="&#xfb;" horiz-adv-x="1349" d="M100 567v963h346v-961q0 -88 68 -155q33 -31 74 -48.5t86 -15.5q45 0 86 18.5t71.5 49.5t47 71.5t16.5 88.5v952h346v-952q2 -117 -42 -220.5t-121 -182.5t-180 -125t-220 -46h-6q-115 0 -217.5 42t-182.5 120q-82 80 -126 183.5t-46 217.5zM285 1632l168 346h127h92h90 h127l168 -346h-312l-73 156l-76 -156h-311z" />
<glyph unicode="&#xfc;" horiz-adv-x="1349" d="M102 565v961h347v-959q4 -94 67 -157q68 -63 160 -64q45 0 86 18.5t71.5 49t47 71.5t16.5 88v953h348v-951q0 -117 -43 -221t-119.5 -182t-180 -124t-222.5 -48h-6q-115 0 -217.5 42t-182.5 122q-82 80 -126 182.5t-46 218.5zM285 1675v312h311v-312h-311zM752 1675v312 h309v-312h-309z" />
<glyph unicode="&#xff;" horiz-adv-x="1429" d="M-4 1516h383l309 -654l264 654h375l-616 -1516h-375l174 426z" />
<glyph unicode="&#x152;" horiz-adv-x="2228" d="M0 745q0 156 59.5 293.5t161 239.5t238.5 161.5t293 59.5t293 -59.5t239 -161.5t161.5 -239.5t59.5 -293.5t-59.5 -293t-161.5 -238t-239.5 -160.5t-292.5 -59.5q-156 0 -293 59.5t-238.5 160.5t-161 238.5t-59.5 292.5zM346 745q0 -84 32 -157.5t87 -129t129 -87 t158 -31.5t157.5 31.5t129 87t87 129.5t31.5 157q0 84 -31.5 158t-87 129t-129 87t-157.5 32t-158 -32t-129 -87t-87 -129t-32 -158zM1155 0v1503h963v-346h-617v-227h502v-346h-502v-238h617v-346h-963z" />
<glyph unicode="&#x153;" horiz-adv-x="2228" d="M0 745q0 156 59.5 293.5t161 239.5t238.5 161.5t293 59.5t293 -59.5t239 -161.5t161.5 -239.5t59.5 -293.5t-59.5 -293t-161.5 -238t-239.5 -160.5t-292.5 -59.5q-156 0 -293 59.5t-238.5 160.5t-161 238.5t-59.5 292.5zM346 745q0 -84 32 -157.5t87 -129t129 -87 t158 -31.5t157.5 31.5t129 87t87 129.5t31.5 157q0 84 -31.5 158t-87 129t-129 87t-157.5 32t-158 -32t-129 -87t-87 -129t-32 -158zM1155 0v1503h963v-346h-617v-227h502v-346h-502v-238h617v-346h-963z" />
<glyph unicode="&#x2c6;" horiz-adv-x="1001" d="M113 1628l168 346h127h90h92h127l168 -346h-312l-75 156l-74 -156h-311z" />
<glyph unicode="&#x2dc;" horiz-adv-x="1146" d="M82 1090v346l987 -2v-347z" />
<glyph unicode="&#x2000;" horiz-adv-x="1021" />
<glyph unicode="&#x2001;" horiz-adv-x="2042" />
<glyph unicode="&#x2002;" horiz-adv-x="1021" />
<glyph unicode="&#x2003;" horiz-adv-x="2042" />
<glyph unicode="&#x2004;" horiz-adv-x="680" />
<glyph unicode="&#x2005;" horiz-adv-x="510" />
<glyph unicode="&#x2006;" horiz-adv-x="340" />
<glyph unicode="&#x2007;" horiz-adv-x="340" />
<glyph unicode="&#x2008;" horiz-adv-x="255" />
<glyph unicode="&#x2009;" horiz-adv-x="408" />
<glyph unicode="&#x200a;" horiz-adv-x="113" />
<glyph unicode="&#x2010;" horiz-adv-x="901" d="M102 580v346l717 -2v-346z" />
<glyph unicode="&#x2011;" horiz-adv-x="901" d="M102 580v346l717 -2v-346z" />
<glyph unicode="&#x2012;" horiz-adv-x="901" d="M102 580v346l717 -2v-346z" />
<glyph unicode="&#x2013;" horiz-adv-x="1206" d="M102 580v346l988 -2v-346z" />
<glyph unicode="&#x2014;" horiz-adv-x="1206" d="M102 580v346l988 -2v-346z" />
<glyph unicode="&#x2018;" horiz-adv-x="550" d="M102 813v688h347v-688h-347z" />
<glyph unicode="&#x2019;" horiz-adv-x="550" d="M102 813v688h347v-688h-347z" />
<glyph unicode="&#x201a;" horiz-adv-x="522" d="M0 -219l166 405h295l-166 -405h-295z" />
<glyph unicode="&#x201c;" horiz-adv-x="993" d="M102 813v688h347v-688h-347zM545 813v688h346v-688h-346z" />
<glyph unicode="&#x201d;" horiz-adv-x="993" d="M102 813v688h347v-688h-347zM545 813v688h346v-688h-346z" />
<glyph unicode="&#x2022;" horiz-adv-x="479" d="M61 750q0 76 52.5 128t126.5 52t126 -52.5t52 -127.5q0 -74 -52 -126.5t-126 -52.5t-126.5 52.5t-52.5 126.5z" />
<glyph unicode="&#x202f;" horiz-adv-x="408" />
<glyph unicode="&#x2039;" horiz-adv-x="1241" d="M102 590v323l895 400l142 -316l-549 -245l549 -246l-142 -316z" />
<glyph unicode="&#x203a;" horiz-adv-x="1241" d="M102 506l549 246l-549 245l142 316l895 -400v-323l-895 -400z" />
<glyph unicode="&#x205f;" horiz-adv-x="510" />
<glyph unicode="&#x20ac;" horiz-adv-x="1257" d="M102 735h78v21v16h-76l-2 318h158q45 94 114.5 171.5t158 133t190.5 86t213 30.5h219v-346h-219q-66 0 -124 -19.5t-107 -53.5l284 2l2 -318l-463 -2v-18v-19l461 2l2 -317l-289 -2q49 -35 108.5 -54.5t125.5 -19.5h219v-346h-219q-111 0 -212 30.5t-189.5 86t-158 132.5 t-116.5 169h-156z" />
<glyph unicode="&#x2122;" horiz-adv-x="1304" d="M102 1565v161h433h153l154 -442l151 442h168l41 -706h-162l-18 287l-98 -287h-162l-105 299l-18 -299h-164l35 545h-111v-547h-161v547h-136z" />
<glyph unicode="&#x25fc;" horiz-adv-x="1515" d="M0 0v1516h1516v-1516h-1516z" />
</font>
</defs>
</svg>
