<?xml version="1.0" encoding="utf-8"?>
<!-- Generator: Adobe Illustrator 26.2.1, SVG Export Plug-In . SVG Version: 6.00 Build 0)  -->
<svg version="1.1" id="Layer_1" xmlns="http://www.w3.org/2000/svg" xmlns:xlink="http://www.w3.org/1999/xlink" x="0px" y="0px"
	 viewBox="0 0 300 300" style="enable-background:new 0 0 300 300;" xml:space="preserve">
<style type="text/css">
	.st0{fill:white;}
</style>
<path class="st0" d="M151.2,247.3c-25.7,0-29.1-0.1-39.3-0.6c-9.5-0.4-17-1.9-24.1-4.6c-7.1-2.8-12.6-6.4-18-11.7
	c-5.3-5.3-9-10.9-11.7-18c-2.8-7.1-4.2-14.6-4.6-24.1c-0.5-10.2-0.6-13.6-0.6-39.3c0-25.7,0.1-29.1,0.6-39.3
	c0.4-9.5,1.9-17,4.6-24.1c2.8-7.1,6.4-12.6,11.7-18c5.3-5.3,10.9-9,18-11.7c7.1-2.8,14.6-4.2,24.1-4.6c10.2-0.5,13.6-0.6,39.3-0.6
	c25.7,0,29.1,0.1,39.3,0.6c9.5,0.4,17,1.9,24.1,4.6c7.1,2.8,12.6,6.4,18,11.7c5.3,5.3,9,10.9,11.7,18c2.8,7.1,4.2,14.6,4.6,24.1
	c0.5,10.2,0.6,13.6,0.6,39.3c0,25.7-0.1,29.1-0.6,39.3c-0.4,9.5-1.9,17-4.6,24.1c-2.8,7.1-6.4,12.6-11.7,18c-5.3,5.3-10.9,9-18,11.7
	c-7.1,2.8-14.6,4.2-24.1,4.6C180.4,247.2,177,247.3,151.2,247.3z M151.2,57.3c-25.6,0-28.9,0.1-39,0.6c-8.8,0.4-15.6,1.7-22,4.2
	c-6.2,2.4-11,5.6-15.7,10.2c-4.7,4.7-7.8,9.5-10.2,15.7c-2.5,6.4-3.8,13.2-4.2,22c-0.5,10.1-0.6,13.4-0.6,39c0,25.6,0.1,28.9,0.6,39
	c0.4,8.8,1.7,15.6,4.2,22c2.4,6.2,5.6,11,10.2,15.7c4.7,4.7,9.5,7.8,15.7,10.2c6.4,2.5,13.2,3.8,22,4.2c10.1,0.5,13.4,0.6,39,0.6
	c25.6,0,28.9-0.1,39-0.6c8.8-0.4,15.6-1.7,22-4.2c6.2-2.4,11-5.6,15.7-10.2c4.7-4.7,7.8-9.5,10.2-15.7c2.5-6.4,3.8-13.2,4.2-22
	c0.5-10.1,0.6-13.4,0.6-39c0-25.6-0.1-28.9-0.6-39c-0.4-8.8-1.7-15.6-4.2-22c-2.4-6.2-5.6-11-10.2-15.7c-4.7-4.7-9.5-7.8-15.7-10.2
	c-6.4-2.5-13.2-3.8-22-4.2C180.2,57.4,176.8,57.3,151.2,57.3z M151.2,230.2c-25.4,0-28.5-0.1-38.5-0.6c-9.7-0.4-15.1-2.1-18.7-3.5
	c-4.8-1.9-8.4-4.2-12.1-7.9c-3.6-3.6-6-7.2-7.9-12.1c-1.4-3.6-3-8.9-3.5-18.7c-0.5-10.1-0.6-13.1-0.6-38.5c0-25.4,0.1-28.5,0.6-38.5
	c0.4-9.7,2.1-15.1,3.5-18.7c1.9-4.8,4.2-8.4,7.9-12.1c3.6-3.6,7.2-6,12.1-7.9c3.6-1.4,8.9-3,18.7-3.5c10.1-0.5,13.1-0.6,38.5-0.6
	c25.4,0,28.5,0.1,38.5,0.6c9.7,0.4,15.1,2.1,18.7,3.5c4.8,1.9,8.4,4.2,12.1,7.9c3.6,3.6,6,7.2,7.9,12.1c1.4,3.6,3,8.9,3.5,18.7
	c0.5,10.1,0.6,13.1,0.6,38.5c0,25.4-0.1,28.5-0.6,38.5c-0.4,9.7-2.1,15.1-3.5,18.7c-1.9,4.8-4.2,8.4-7.9,12.1
	c-3.6,3.6-7.2,6-12.1,7.9c-3.6,1.4-8.9,3-18.7,3.5C179.7,230.1,176.7,230.2,151.2,230.2z M151.2,74.4c-25.3,0-28.3,0.1-38.2,0.6
	c-8.8,0.4-13.5,1.8-16.6,3c-4,1.6-6.8,3.3-9.8,6.4c-3,3-4.8,5.8-6.4,9.8c-1.2,3.1-2.6,7.8-3,16.6c-0.5,10-0.5,12.9-0.5,38.2
	c0,25.3,0.1,28.3,0.6,38.2c0.4,8.8,1.8,13.5,3,16.6c1.6,4,3.3,6.8,6.4,9.8c3,3,5.8,4.8,9.8,6.4c3.1,1.2,7.8,2.6,16.6,3
	c10,0.5,12.9,0.5,38.2,0.5c25.3,0,28.3-0.1,38.2-0.5c8.8-0.4,13.5-1.8,16.6-3c4-1.6,6.8-3.3,9.8-6.4c3-3,4.8-5.8,6.4-9.8
	c1.2-3.1,2.6-7.8,3-16.6c0.5-10,0.5-12.9,0.5-38.2c0-25.3-0.1-28.3-0.5-38.2c-0.4-8.8-1.8-13.5-3-16.6c-1.6-4-3.3-6.8-6.4-9.8
	c-3-3-5.8-4.8-9.8-6.4c-3.1-1.2-7.8-2.6-16.6-3C179.5,74.5,176.5,74.4,151.2,74.4z"/>
<path class="st0" d="M151.2,100.2c-26.9,0-48.8,21.8-48.8,48.8s21.8,48.8,48.8,48.8s48.8-21.8,48.8-48.8S178.2,100.2,151.2,100.2z
	 M151.2,180.6c-17.5,0-31.7-14.2-31.7-31.7c0-17.5,14.2-31.7,31.7-31.7s31.7,14.2,31.7,31.7C182.9,166.4,168.7,180.6,151.2,180.6z"
	/>
<circle class="st0" cx="202" cy="98.2" r="11.4"/>
</svg>
