<?xml version="1.0" encoding="utf-8"?>
<!-- Generator: Adobe Illustrator 26.2.1, SVG Export Plug-In . SVG Version: 6.00 Build 0)  -->
<svg version="1.1" id="Layer_1" xmlns="http://www.w3.org/2000/svg" xmlns:xlink="http://www.w3.org/1999/xlink" x="0px" y="0px"
	 viewBox="0 0 764 44" style="enable-background:new 0 0 764 44;" xml:space="preserve">
<style type="text/css">
	.st0{fill:#FFFFFF;}
</style>
<g>
	<polygon class="st0" points="11.8,30.2 4.5,18 4.5,30.2 2,30.2 2,14 4.9,14 12,25.5 11.9,14 14.4,14 14.4,30.2 	"/>
	<path class="st0" d="M31.1,30.5l-1.7-5H24l-1.7,5l-2.5-0.4l6-16.1h2.4L33.7,30L31.1,30.5z M26.8,17.1l-2.1,6.3h4L26.8,17.1z"/>
	<polygon class="st0" points="43.6,16.2 43.6,30.2 41,30.2 41,16.2 36.2,16.2 36.2,14 48.5,14 48.5,16.2 	"/>
	<rect x="54.4" y="14" class="st0" width="2.7" height="16.2"/>
	<path class="st0" d="M70.6,30.6c-4.6,0-6.6-4-6.6-8.5c0-5.1,2.8-8.6,6.6-8.6c4.6,0,6.7,4,6.7,8.6C77.3,27.1,74.4,30.6,70.6,30.6
		 M70.5,15.7c-3.1,0-3.7,3.6-3.7,5.9c0,2.6,0.5,6.8,4,6.8c3.2,0,3.7-3.5,3.7-5.9C74.5,19.9,74,15.7,70.5,15.7"/>
	<polygon class="st0" points="93.9,30.2 86.6,18 86.6,30.2 84.1,30.2 84.1,14 87,14 94.1,25.5 94,14 96.5,14 96.5,30.2 	"/>
	<path class="st0" d="M113.2,30.5l-1.7-5h-5.4l-1.7,5l-2.5-0.4l6-16.1h2.4l5.6,16.1L113.2,30.5z M108.9,17.1l-2.1,6.3h4L108.9,17.1z
		"/>
	<polygon class="st0" points="121.7,30.2 121.7,14 124.4,14 124.4,28.1 130.5,28.1 130.5,30.2 	"/>
	<polygon class="st0" points="156.6,30.3 156,18.2 152.3,30.2 149.9,30.2 146.3,18.2 145.6,30.3 143,30.2 144.2,14 147.5,14 
		151.3,26.4 155,14 158.2,14 159.3,30.2 	"/>
	<path class="st0" d="M172.5,30.5c-3.5,0-6-2.2-6-5.6V14h2.7V25c0,1.7,1.3,3.3,3.3,3.3c2,0,3.2-1.4,3.2-3.4V14h2.7v10.9
		C178.4,28.5,175.5,30.5,172.5,30.5"/>
	<path class="st0" d="M189.4,30.6c-1.5,0-3.5-0.8-4.8-1.4l1.2-2.2c1,0.6,2.8,1.4,3.9,1.4c1.7,0,2.7-0.9,2.7-2.2c0-3.5-7-3.5-7-8.5
		c0-2.4,2.1-4.2,4.7-4.2c2.1,0,3.7,0.6,4.6,1.2l-1,2c-1-0.6-2.3-1.1-3.6-1.1c-1,0-2,0.8-2,1.9c0,3.1,7.1,3.4,7.1,8.4
		C195.2,29,192.9,30.6,189.4,30.6"/>
	<polygon class="st0" points="202.3,30.2 202.3,14 211.3,14 211.3,16.1 205,16.1 205,20.8 210.3,20.8 210.3,22.9 205,22.9 205,28.1 
		212,28.1 212,30.2 	"/>
	<path class="st0" d="M224.9,30.5c-3.5,0-6-2.2-6-5.6V14h2.7V25c0,1.7,1.3,3.3,3.3,3.3c2,0,3.2-1.4,3.2-3.4V14h2.7v10.9
		C230.8,28.5,227.9,30.5,224.9,30.5"/>
	<polygon class="st0" points="252.1,30.3 251.4,18.2 247.7,30.2 245.4,30.2 241.7,18.2 241,30.3 238.5,30.2 239.7,14 242.9,14 
		246.7,26.4 250.5,14 253.6,14 254.7,30.2 	"/>
	<path class="st0" d="M324.9,30.5l-1.7-5h-5.4l-1.7,5l-2.5-0.4l6-16.1h2.4l5.6,16.1L324.9,30.5z M320.6,17.2l-2.1,6.3h4L320.6,17.2z
		"/>
	<polygon class="st0" points="346.3,30.3 345.7,18.3 342,30.2 339.7,30.2 336,18.3 335.3,30.3 332.8,30.2 333.9,14 337.2,14 
		341,26.4 344.8,14 347.9,14 349,30.2 	"/>
	<polygon class="st0" points="356.1,30.2 356.1,14 365.1,14 365.1,16.1 358.8,16.1 358.8,20.8 364.1,20.8 364.1,22.9 358.8,22.9 
		358.8,28.1 365.8,28.1 365.8,30.2 	"/>
	<path class="st0" d="M380.5,30.5l-3.6-7.4c-0.1,0-0.2,0-0.3,0h-1.4v7h-2.7V14h4.3c3.6,0,5.4,2.1,5.4,4.5c0,2.3-1.7,3.6-2.8,4.1
		l4.1,7.3L380.5,30.5z M376.7,16h-1.6v5.1h1.6c1.6,0,2.6-0.8,2.6-2.5C379.4,17.2,378.6,16,376.7,16"/>
	<rect x="390.2" y="14" class="st0" width="2.7" height="16.2"/>
	<path class="st0" d="M407.2,30.6c-4.3,0-7.2-2.5-7.2-8.6c0-5.2,3-8.4,7.8-8.4c1.2,0,2.7,0.4,3.6,0.9l-0.8,2c-1-0.4-1.9-0.7-2.8-0.7
		c-2.2,0-5,1.4-5,6.1c0,5,1.9,6.4,4.5,6.4c1.7,0,2.4-0.3,3.9-0.9l0.7,2.1C410.9,30,409,30.6,407.2,30.6"/>
	<path class="st0" d="M426.9,30.5l-1.7-5h-5.4l-1.7,5l-2.5-0.4l6-16.1h2.4l5.6,16.1L426.9,30.5z M422.5,17.2l-2.1,6.3h4L422.5,17.2z
		"/>
	<polygon class="st0" points="444.9,30.2 437.6,18.1 437.6,30.2 435.1,30.2 435.1,14 438,14 445.1,25.5 445,14 447.5,14 447.5,30.2 
			"/>
	<rect x="462.7" y="14" class="st0" width="2.7" height="16.2"/>
	<polygon class="st0" points="482.3,30.2 475,18.1 475,30.2 472.5,30.2 472.5,14 475.5,14 482.5,25.5 482.4,14 484.9,14 484.9,30.2 
			"/>
	<path class="st0" d="M497.2,30.2h-4.7V14h4.8c4.9,0,6.9,3.6,6.9,8C504.1,27.3,501.4,30.2,497.2,30.2 M497.1,16.1h-1.9v12.1h1.7
		c2.8,0,4.3-1.7,4.3-6.2C501.2,19.1,500.1,16.1,497.1,16.1"/>
	<rect x="510.6" y="14" class="st0" width="2.7" height="16.2"/>
	<path class="st0" d="M530.2,30.5l-1.7-5h-5.4l-1.7,5l-2.5-0.4l6-16.1h2.4l5.6,16.1L530.2,30.5z M525.9,17.2l-2.1,6.3h4L525.9,17.2z
		"/>
	<polygon class="st0" points="548.3,30.2 540.9,18.1 541,30.2 538.5,30.2 538.5,14 541.4,14 548.4,25.5 548.4,14 550.8,14 
		550.8,30.2 	"/>
	<g>
		<path class="st0" d="M266.5,22.1C266.5,22.1,266.5,22.1,266.5,22.1c-1.1,0-2.1,0.6-2.8,1.6c-0.6,0.9-1,2-1,3
			c0,1.9,0.8,3.9,2.9,3.9c0,0,0,0,0,0l0.2,0c2.1,0,3.7-2.2,3.6-4.9C269.4,23.9,268.4,22.1,266.5,22.1z M267.7,26
			c-0.1,1.7-0.8,3.4-2.1,3.4c-1-0.1-1.2-1.3-1.3-2.4c0-1.7,1-3.7,2.1-3.7c0,0,0,0,0,0c0.3,0,0.5,0.1,0.7,0.3
			C267.6,24,267.8,24.9,267.7,26z"/>
		<path class="st0" d="M275.6,17.1c-1.3,0-2.5,1.2-2.7,2.7l-0.3,2.7l-1.3,0l-0.1,1.1l1.3,0l-1,9.3c-0.1,0.5-0.3,1.5-1.2,1.5
			c-0.3,0-0.6-0.1-0.9-0.3l-0.2-0.1l-0.1,1.3l0.1,0c0.5,0.1,0.9,0.2,1.3,0.2c0,0,0,0,0,0c1.3,0,2.5-1.2,2.7-2.7l1-9.2l1.9,0l0.1-1.1
			l-1.8,0l0.3-2.8c0.1-0.9,0.5-1.5,1.2-1.5c0,0,0,0,0,0c0.2,0,0.6,0.1,0.8,0.3l0.2,0.1l0.2-1.2l-0.1-0.1
			C276.6,17.3,276.1,17.2,275.6,17.1z"/>
		<path class="st0" d="M285.7,20.1l-1.6,0.8l-0.2,1.7l-1.3,0l-0.1,1l1.3,0l-0.4,4.4c-0.1,0.7,0.1,1.4,0.6,1.9
			c0.3,0.4,0.8,0.6,1.3,0.6c0,0,0,0,0,0c0.8,0,1.2-0.2,1.8-0.5l0.3-0.2l0.1-1.1l-0.4,0.2c-0.4,0.2-0.7,0.3-1.1,0.3
			c-0.3,0-0.5-0.1-0.6-0.3c-0.2-0.3-0.4-0.7-0.3-1.2l0.4-4.2l2.2,0l0.1-1.1l-2.2,0L285.7,20.1z"/>
		<path class="st0" d="M297.4,28.6c-0.1,0.2-0.4,0.5-0.6,0.5c0,0,0,0,0,0c-0.1,0-0.1,0-0.1-0.1c-0.1-0.1-0.1-0.4,0-0.5l0.5-4.2
			c0.1-0.7-0.1-1.4-0.4-1.8c-0.3-0.4-0.7-0.6-1.2-0.7c-1.3-0.1-2.3,0.5-3,0.9l0.4-5.8l-1.8,0.8l-0.9,12.5l1.6,0l0.5-6.1
			c0.3-0.3,1.1-0.8,1.7-0.8c0.4,0,0.8,0.2,1.1,0.5c0.2,0.2,0.4,0.5,0.3,0.9l-0.4,4c-0.1,0.5,0.1,1,0.4,1.3c0.2,0.3,0.6,0.4,0.9,0.4
			c0,0,0,0,0,0c0.8,0,1.3-0.6,1.7-1.2l0.1-0.1l-0.6-0.6L297.4,28.6z"/>
		<path class="st0" d="M302.7,29c-1-0.1-1.4-0.9-1.4-2.3c0,0,0-0.1,0-0.1c0,0,0-0.1,0-0.1c0.3,0,0.7,0.1,1.1,0.1
			c0.8,0,1.7-0.3,2.4-0.8c0.8-0.6,1.3-1.3,1.3-2.1c0-0.5-0.2-1-0.6-1.3c-0.4-0.4-0.9-0.6-1.4-0.6c-2.4,0-4.4,2.7-4.4,4.9
			c0,2.2,1.1,3.6,2.9,3.6c0,0,0.1,0,0.1,0c1.1,0,2.2-0.5,2.7-0.9l0.1,0l0.1-1.7l-0.3,0.3C304.8,28.5,303.6,29.1,302.7,29z
			 M301.5,25.4c0.2-1.1,1.4-2.6,2.4-2.6c0.2,0,0.3,0.1,0.5,0.2c0.1,0.1,0.2,0.4,0.2,0.6c0,0.6-0.5,1.1-0.9,1.3
			c-0.5,0.3-1.1,0.5-1.6,0.5C301.9,25.5,301.7,25.4,301.5,25.4z"/>
	</g>
</g>
<g>
	<g>
		<path class="st0" d="M627.3,16c-0.5-1.8-1.3-3.8-3.7-3.8c-2.2,0-3.2,1.6-3.2,3.1c0,2.1,1.4,3.1,3.6,4.2c2.2,1.1,4.9,2.5,4.9,5.7
			c0,3-2.5,5.4-6.3,5.4c-1.2,0-2.1-0.2-2.8-0.4c-0.7-0.3-1.1-0.5-1.4-0.6c-0.2-0.6-0.6-3.1-0.8-4.4l0.8-0.2c0.5,1.7,1.7,4.6,4.7,4.6
			c2.1,0,3.4-1.3,3.4-3.4c0-2.1-1.6-3.1-3.7-4.3c-1.8-1-4.7-2.4-4.7-5.6c0-2.7,2.2-5.1,5.9-5.1c1.3,0,2.5,0.3,3.6,0.7
			c0.1,1,0.3,2.1,0.5,3.9L627.3,16z"/>
		<path class="st0" d="M646.4,30.3v-0.7c1.7-0.2,2-0.3,2-2.3v-4.8c0-2-0.7-3.3-2.5-3.3c-1,0-2.1,0.6-3.2,1.5
			c0.1,0.3,0.1,0.7,0.1,1.2v5.6c0,1.8,0.3,2,1.8,2.1v0.7h-6.1v-0.7c1.8-0.2,2-0.3,2-2.2v-4.9c0-2.1-0.7-3.3-2.5-3.3
			c-1.1,0-2.3,0.8-3.1,1.5v6.7c0,1.9,0.2,2,1.6,2.2v0.7h-6v-0.7c1.9-0.2,2.1-0.3,2.1-2.2v-5.9c0-1.8-0.1-2-1.7-2.2v-0.7
			c1.3-0.2,2.7-0.6,4-1.2v2.3c0.6-0.4,1.2-0.9,2.1-1.5c0.7-0.5,1.4-0.8,2.3-0.8c1.4,0,2.6,0.9,3.2,2.3c0.8-0.6,1.7-1.2,2.4-1.6
			c0.6-0.4,1.3-0.7,2.1-0.7c2.2,0,3.6,1.6,3.6,4.4v5.5c0,1.9,0.2,2,1.9,2.2v0.7H646.4z"/>
		<path class="st0" d="M654.1,30.3v-0.7c1.8-0.2,2-0.3,2-2.3v-5.9c0-1.8-0.1-1.9-1.8-2.2v-0.7c1.5-0.2,2.8-0.6,4.1-1.1v9.9
			c0,1.9,0.2,2.1,2,2.3v0.7H654.1z M655.6,13.5c0-0.9,0.7-1.5,1.5-1.5c0.8,0,1.4,0.6,1.4,1.5c0,0.8-0.6,1.5-1.5,1.5
			C656.3,15,655.6,14.3,655.6,13.5z"/>
		<path class="st0" d="M667.1,30.2c-0.5,0.3-0.9,0.4-1.2,0.4c-1.8,0-2.8-1.1-2.8-3.4v-8.3h-2l-0.1-0.3l0.8-0.8h1.3v-2.1l1.9-1.9
			l0.4,0.1v3.9h3.2c0.3,0.3,0.2,0.9-0.2,1.1h-3.1v7.3c0,2.3,0.9,2.7,1.7,2.7c0.7,0,1.4-0.3,1.8-0.5l0.3,0.7L667.1,30.2z"/>
		<path class="st0" d="M678,30.3v-0.7c1.7-0.2,1.9-0.3,1.9-2.2v-4.7c0-2.3-0.9-3.5-2.8-3.5c-1.1,0-2.2,0.5-3,1.5v6.8
			c0,1.8,0.1,2,1.8,2.2v0.7h-6.1v-0.7c1.7-0.1,2-0.3,2-2.2V13.7c0-1.8-0.1-1.9-1.9-2.1v-0.7c1.4-0.2,3.1-0.7,4.2-1v9.6
			c1-1,2.5-2.1,4.1-2.1c2.3,0,3.9,1.5,3.9,4.9v5c0,1.9,0.2,2.1,1.9,2.2v0.7H678z"/>
		<path class="st0" d="M692.8,21.2c-0.5-1.7-1.5-2.8-2.9-2.8c-1.1,0-1.9,0.9-1.9,2c0,1.3,1.1,1.9,2.4,2.5c2.1,0.9,3.6,1.9,3.6,3.9
			c0,2.6-2.4,3.9-4.7,3.9c-1.5,0-2.8-0.5-3.3-1c-0.2-0.4-0.5-2.3-0.5-3.4l0.7-0.1c0.5,1.9,1.8,3.5,3.5,3.5c1.1,0,2-0.8,2-2
			c0-1.3-0.8-1.9-2.3-2.6c-1.7-0.8-3.6-1.7-3.6-3.9c0-2,1.7-3.7,4.3-3.7c1.2,0,1.9,0.3,2.5,0.5c0.2,0.7,0.5,2.3,0.6,3.1L692.8,21.2z
			"/>
		<path class="st0" d="M708.6,23.8c0,4.6-3.4,6.8-6.2,6.8c-3.9,0-6.3-3.1-6.3-6.3c0-4.7,3.7-6.9,6.3-6.9
			C706,17.4,708.6,20.3,708.6,23.8z M698.8,23.4c0,3.6,1.6,6.3,3.9,6.3c1.8,0,3.2-1.3,3.2-5.2c0-3.3-1.3-6.1-3.8-6.1
			C700.4,18.4,698.8,20.2,698.8,23.4z"/>
		<path class="st0" d="M718.4,30.3v-0.7c1.7-0.2,1.9-0.4,1.9-2.4v-4.8c0-2-0.7-3.3-2.6-3.3c-1.1,0-2.3,0.7-3.1,1.5v6.7
			c0,1.9,0.2,2.1,1.9,2.2v0.7h-6.2v-0.7c1.9-0.2,2.1-0.3,2.1-2.2v-5.9c0-1.8-0.2-1.9-1.7-2.2v-0.7c1.4-0.3,2.7-0.6,4-1.2v2.3
			c0.6-0.4,1.2-0.9,1.9-1.3c0.8-0.5,1.5-0.9,2.4-0.9c2.3,0,3.7,1.6,3.7,4.3v5.5c0,1.9,0.1,2.1,1.8,2.2v0.7H718.4z"/>
		<path class="st0" d="M725.9,30.3v-0.7c1.8-0.2,2-0.3,2-2.3v-5.9c0-1.8-0.1-1.9-1.8-2.2v-0.7c1.5-0.2,2.8-0.6,4.1-1.1v9.9
			c0,1.9,0.2,2.1,2,2.3v0.7H725.9z M727.4,13.5c0-0.9,0.7-1.5,1.5-1.5c0.8,0,1.4,0.6,1.4,1.5c0,0.8-0.6,1.5-1.5,1.5
			C728.1,15,727.4,14.3,727.4,13.5z"/>
		<path class="st0" d="M742.7,30.6c-0.4,0-1-0.3-1.3-0.5c-0.4-0.4-0.5-0.8-0.7-1.3c-1.1,0.8-2.5,1.8-3.4,1.8c-2,0-3.4-1.7-3.4-3.5
			c0-1.4,0.7-2.3,2.3-2.8c1.7-0.6,3.8-1.3,4.4-1.9v-0.5c0-2.1-1-3.2-2.4-3.2c-0.6,0-1,0.2-1.3,0.6c-0.4,0.4-0.6,1-0.9,1.9
			c-0.1,0.5-0.4,0.7-0.8,0.7c-0.5,0-1.3-0.6-1.3-1.2c0-0.4,0.4-0.7,0.9-1.1c0.8-0.6,2.7-1.7,4.3-2c0.9,0,1.7,0.3,2.3,0.8
			c1,0.8,1.3,2,1.3,3.5V27c0,1.3,0.5,1.7,1,1.7c0.3,0,0.7-0.1,1-0.3l0.3,0.7L742.7,30.6z M740.6,23.4c-0.6,0.3-2,0.9-2.6,1.2
			c-1.1,0.5-1.7,1.1-1.7,2.1c0,1.5,1.1,2.2,2,2.2c0.7,0,1.7-0.5,2.3-1V23.4z"/>
		<path class="st0" d="M754,30.3v-0.7c1.7-0.2,1.9-0.4,1.9-2.4v-4.8c0-2-0.7-3.3-2.6-3.3c-1.1,0-2.3,0.7-3.1,1.5v6.7
			c0,1.9,0.2,2.1,1.9,2.2v0.7h-6.2v-0.7c1.9-0.2,2.1-0.3,2.1-2.2v-5.9c0-1.8-0.2-1.9-1.7-2.2v-0.7c1.4-0.3,2.7-0.6,4-1.2v2.3
			c0.6-0.4,1.2-0.9,1.9-1.3c0.8-0.5,1.5-0.9,2.4-0.9c2.3,0,3.7,1.6,3.7,4.3v5.5c0,1.9,0.1,2.1,1.8,2.2v0.7H754z"/>
	</g>
	<g>
		<path class="st0" d="M606.8,23.7c-0.9-1.5-2.2-1.5-2.4-1.5c0,0,0,0,0,0l5.7-1.2l-5.7-1.2l0,0c0.1-0.1,1.2-1,2.8-1.1
			c1.3,0,2.4-1.6,1.7-2.7c0,0-0.2,1.9-2.6,1.2c-1.7-0.4-2.6,0.5-2.7,0.6l0,0l3.2-4.9l-4.9,3.2c0,0,0,0,0,0c0-0.1,0.1-1.6,1.3-2.8
			c0.9-0.9,0.6-2.8-0.8-3.1c0,0,1.2,1.5-0.9,2.7c-1.5,0.9-1.5,2.2-1.5,2.4l0,0l-1.2-5.7l-1.2,5.7c0,0,0,0,0,0c0-0.1-1-1.2-1.1-2.8
			c0-1.3-1.6-2.4-2.7-1.7c0,0,1.9,0.2,1.2,2.6c-0.4,1.7,0.5,2.6,0.6,2.7l0,0l-4.9-3.2l0,0l0,0l2.6,4l0.6,0.9c0,0,0,0,0,0
			c0,0-1.6-0.1-2.8-1.3c-0.9-0.9-2.8-0.6-3.1,0.8c0,0,1.5-1.2,2.7,0.9c0.9,1.5,2.2,1.5,2.4,1.5c0,0,0,0,0,0l-5.7,1.2l5.7,1.2v0
			c0,0-1.2,1-2.8,1.1c-1.3,0-2.4,1.6-1.7,2.7c0,0,0.2-1.9,2.6-1.2c1.7,0.4,2.6-0.5,2.7-0.6c0,0,0,0,0,0l-3.2,4.9l4.9-3.2
			c0,0.1-0.1,1.6-1.3,2.8c-0.9,0.9-0.6,2.8,0.8,3.1c0,0-1.2-1.5,0.9-2.7c1.5-0.9,1.5-2.2,1.5-2.4c0,0,0,0,0,0l1.2,5.7l1.2-5.7l0,0
			c0,0,1,1.2,1.1,2.8c0,1.3,1.6,2.4,2.7,1.7c0,0-1.9-0.2-1.2-2.6c0.4-1.7-0.5-2.6-0.6-2.7c0,0,0,0,0,0l4.9,3.2l-1.7-2.6l-1.5-2.3
			l0,0c0.1,0,1.6,0.1,2.8,1.3c0.9,0.9,2.8,0.6,3.1-0.8C609.5,24.6,608,25.8,606.8,23.7z"/>
	</g>
</g>
<rect x="569.5" y="2" class="st0" width="1" height="38.5"/>
</svg>
