<?xml version="1.0" encoding="UTF-8"?>
<svg width="104px" height="104px" viewBox="0 0 104 104" version="1.1" xmlns="http://www.w3.org/2000/svg" xmlns:xlink="http://www.w3.org/1999/xlink">
    <!-- Generator: Sketch 57.1 (83088) - https://sketch.com -->
    <title>logo</title>
    <desc>Created with Sketch.</desc>
    <g id="DESKTOP-/-PAGES" stroke="none" stroke-width="1" fill="none" fill-rule="evenodd">
        <g id="news-detail-page2" transform="translate(-100.000000, -68.000000)" fill="#FFFFFE">
            <g id="logo" transform="translate(100.000000, 68.000000)">
                <path d="M13.5897093,22.8430193 L14.2544893,22.8430193 C14.5660338,22.8430193 15.0595022,22.7895633 15.338452,22.5659517 C15.5529705,22.395796 15.6924454,22.0968943 15.6924454,21.7776642 C15.6924454,21.4893031 15.5848072,21.2129884 15.4028834,21.0315392 C15.1027091,20.743931 14.6623018,20.7115563 14.2764717,20.7115563 L13.5897093,20.7115563 L13.5897093,22.8430193 Z M13.5897093,19.8163569 L13.9224783,19.8163569 C14.1900579,19.8163569 14.5554216,19.784735 14.813147,19.5400422 C15.0595022,19.305137 15.0913388,18.9746134 15.0913388,18.7299206 C15.0913388,18.5168496 15.0595022,18.2608632 14.8343714,18.0477922 C14.5872582,17.8136399 14.2764717,17.7812652 13.9656852,17.7812652 L13.5897093,17.7812652 L13.5897093,19.8163569 Z M13.5790971,16.7588255 C14.5016024,16.7588255 15.0807266,16.8755252 15.5529705,17.3129607 C15.9395586,17.6751061 16.1214825,18.1336229 16.1214825,18.71938 C16.1214825,18.9964476 16.0790336,19.2840558 15.906964,19.5603705 C15.7462646,19.838191 15.5309881,19.9767248 15.3710467,20.051262 C15.4991514,20.0828838 15.9395586,20.2003364 16.2927941,20.5624818 C16.6793822,20.9675426 16.765038,21.4576813 16.765038,21.8951168 C16.765038,22.4063366 16.6361753,22.8106445 16.2927941,23.1735429 C15.7242821,23.7698405 14.8343714,23.8662119 14.2870839,23.8662119 L12.4958923,23.8662119 L12.4958923,16.7588255 L13.5790971,16.7588255 L13.5790971,16.7588255 Z" id="Fill-12"></path>
                <polyline id="Fill-13" points="24.6590157 17.7812652 21.8058438 17.7812652 21.8058438 19.5822046 24.5733599 19.5822046 24.5733599 20.6053972 21.8058438 20.6053972 21.8058438 22.8430193 24.6590157 22.8430193 24.6590157 23.8662119 20.7112688 23.8662119 20.7112688 16.7588255 24.6590157 16.7588255 24.6590157 17.7812652"></polyline>
                <path d="M33.9485007,18.4204782 C33.1541,17.7074809 32.4142765,17.6321908 32.0064639,17.6321908 C30.4510153,17.6321908 29.3996472,18.7728359 29.3996472,20.3388702 C29.3996472,21.8409079 30.4942222,23.0026343 32.0170762,23.0026343 C32.8759082,23.0026343 33.5406882,22.5659517 33.9485007,22.1819721 L33.9485007,23.4716917 C33.2299016,23.8978337 32.4787079,24.0047457 31.9852395,24.0047457 C30.6875163,24.0047457 29.8718911,23.4182357 29.4534663,23.0237155 C28.6166168,22.2459687 28.3058303,21.3402287 28.3058303,20.3388702 C28.3058303,19.0280694 28.8523597,18.1223294 29.4534663,17.5576536 C30.1932899,16.8649846 31.0521219,16.6308323 32.0390586,16.6308323 C32.6932264,16.6308323 33.3261696,16.747532 33.9485007,17.1420522 L33.9485007,18.4204782" id="Fill-14"></path>
                <path d="M41.5316919,21.1271577 L40.4697116,18.71938 L39.3645244,21.1271577 L41.5316919,21.1271577 Z M41.9713411,22.1503503 L38.914263,22.1503503 L38.1304745,23.8662119 L36.9510017,23.8662119 L40.5121605,16.3432241 L43.9027657,23.8662119 L42.7225349,23.8662119 L41.9713411,22.1503503 L41.9713411,22.1503503 Z" id="Fill-15"></path>
                <path d="M48.4705696,16.7588255 L48.4705696,21.0420798 C48.4705696,21.4260594 48.4811818,21.8951168 48.6957003,22.2678028 C48.9109768,22.6299483 49.393075,23.0026343 50.0260182,23.0026343 C50.6589615,23.0026343 51.1418177,22.6299483 51.3563362,22.2678028 C51.5708547,21.8951168 51.5822249,21.4260594 51.5822249,21.0420798 L51.5822249,16.7588255 L52.6760419,16.7588255 L52.6760419,21.3296881 C52.6760419,21.8951168 52.5585494,22.5764923 52.0112619,23.1735429 C51.635286,23.5786036 51.0023427,24.0047457 50.0260182,24.0047457 C49.0504518,24.0047457 48.4167505,23.5786036 48.0415326,23.1735429 C47.4942451,22.5764923 47.3767526,21.8951168 47.3767526,21.3296881 L47.3767526,16.7588255 L48.4705696,16.7588255" id="Fill-16"></path>
                <path d="M60.0545688,18.3354004 C59.9908954,18.1757854 59.8938694,18.026711 59.73317,17.8881772 C59.5080393,17.7074809 59.2722964,17.6321908 58.9607518,17.6321908 C58.2952139,17.6321908 57.9525907,18.026711 57.9525907,18.4844748 C57.9525907,18.6975458 58.0268762,19.0709848 58.7242509,19.3480524 L59.443608,19.6356606 C60.7633137,20.1687146 61.1279193,20.9140867 61.1279193,21.7242082 C61.1279193,23.0771715 60.162207,24.0047457 58.8212769,24.0047457 C57.9950395,24.0047457 57.5023292,23.6953033 57.1369655,23.2902425 C56.7503774,22.8641005 56.5790658,22.395796 56.5366169,21.9056574 L57.6198217,21.6707523 C57.6198217,22.0223571 57.7486844,22.3528807 57.919996,22.5764923 C58.1239023,22.8324787 58.4240766,23.0026343 58.8531136,23.0026343 C59.5186515,23.0026343 60.0333443,22.5230363 60.0333443,21.8092861 C60.0333443,21.0849952 59.4762026,20.7860935 59.0039587,20.5948566 L58.3171963,20.3072484 C57.7267019,20.0618026 56.8580157,19.571664 56.8580157,18.506309 C56.8580157,17.547113 57.6092094,16.6308323 58.9501396,16.6308323 C59.7225578,16.6308323 60.162207,16.9184405 60.3880958,17.1104303 C60.5806318,17.280586 60.7845381,17.5260317 60.9346253,17.8241806 L60.0545688,18.3354004" id="Fill-17"></path>
                <polyline id="Fill-18" points="69.021897 17.7812652 66.1679671 17.7812652 66.1679671 19.5822046 68.9362412 19.5822046 68.9362412 20.6053972 66.1679671 20.6053972 66.1679671 22.8430193 69.021897 22.8430193 69.021897 23.8662119 65.0741502 23.8662119 65.0741502 16.7588255 69.021897 16.7588255 69.021897 17.7812652"></polyline>
                <path d="M83.4492139,20.317789 C83.4492139,18.7404612 82.354639,17.6321908 80.8204147,17.6321908 C79.2861905,17.6321908 78.1916156,18.7404612 78.1916156,20.317789 C78.1916156,21.8951168 79.2861905,23.0026343 80.8204147,23.0026343 C82.354639,23.0026343 83.4492139,21.8951168 83.4492139,20.317789 Z M84.5430309,20.317789 C84.5430309,22.4063366 82.9663578,24.0047457 80.8204147,24.0047457 C78.6752297,24.0047457 77.0977986,22.4063366 77.0977986,20.317789 C77.0977986,18.2284884 78.6752297,16.6308323 80.8204147,16.6308323 C82.9663578,16.6308323 84.5430309,18.2284884 84.5430309,20.317789 L84.5430309,20.317789 Z" id="Fill-19"></path>
                <polyline id="Fill-20" points="91.9117036 17.7812652 89.4223793 17.7812652 89.4223793 19.5822046 91.8252898 19.5822046 91.8252898 20.6053972 89.4223793 20.6053972 89.4223793 23.8662119 88.3285624 23.8662119 88.3285624 16.7588255 91.9117036 16.7588255 91.9117036 17.7812652"></polyline>
                <polyline id="Fill-21" points="17.6124998 42.4764212 31.9534028 42.4764212 31.9534028 29.3277564 37.0684942 29.3277564 37.0684942 62.5480115 31.9534028 62.5480115 31.9534028 47.258096 17.6124998 47.258096 17.6124998 62.5480115 12.4981664 62.5480115 12.4981664 29.3277564 17.6124998 29.3277564 17.6124998 42.4764212"></polyline>
                <polyline id="Fill-22" points="63.542958 34.1086784 50.204152 34.1086784 50.204152 42.5261126 63.1412096 42.5261126 63.1412096 47.3070346 50.204152 47.3070346 50.204152 57.7663366 63.542958 57.7663366 63.542958 62.5480115 45.0898186 62.5480115 45.0898186 29.3277564 63.542958 29.3277564 63.542958 34.1086784"></polyline>
                <path d="M75.2755283,44.5679804 L76.880248,44.5679804 C78.2848515,44.5679804 84.0010495,44.418906 84.0010495,39.1388106 C84.0010495,34.4572716 79.5378518,34.0092954 77.0303352,34.0092954 L75.2755283,34.0092954 L75.2755283,44.5679804 Z M76.1282962,29.3277564 C80.1897455,29.3277564 82.7973202,29.825424 84.9538755,31.2702412 C88.6135764,33.7103937 88.9145087,37.6450548 88.9145087,39.089872 C88.9145087,43.870794 85.9567306,47.357479 81.4935329,48.3535671 L91.9230738,62.5480115 L85.7558564,62.5480115 L76.1783253,48.9513706 L75.2755283,48.9513706 L75.2755283,62.5480115 L70.161195,62.5480115 L70.161195,29.3277564 L76.1282962,29.3277564 L76.1282962,29.3277564 Z" id="Fill-23"></path>
                <path d="M21.7103338,72.1294309 C21.5412962,71.7108178 21.2881189,71.3208151 20.8674201,70.9579167 C20.2776837,70.4835891 19.6599007,70.2885877 18.8450336,70.2885877 C17.1038711,70.2885877 16.2056222,71.3208151 16.2056222,72.5201865 C16.2056222,73.0780862 16.4011903,74.0538461 18.2272507,74.7796427 L20.1094042,75.5325438 C23.5629247,76.9276695 24.5180247,78.8799421 24.5180247,81.0001116 C24.5180247,84.5432641 21.9907997,86.9698644 18.480428,86.9698644 C16.3178086,86.9698644 15.0261495,86.1604957 14.0702914,85.1004109 C13.0598562,83.9846115 12.6103527,82.7573827 12.4981664,81.4744393 L15.3346619,80.860072 C15.3346619,81.78087 15.671979,82.6459534 16.1207244,83.2317104 C16.6543676,83.9010395 17.4411882,84.3475098 18.5645677,84.3475098 C20.3057303,84.3475098 21.6542406,83.0924237 21.6542406,81.2229703 C21.6542406,79.3264124 20.1927859,78.545654 18.95722,78.043469 L17.1599643,77.289815 C15.6158858,76.6483432 13.3403221,75.3653998 13.3403221,72.5759012 C13.3403221,70.0657289 15.3066153,67.6662332 18.816987,67.6662332 C20.8393735,67.6662332 21.9907997,68.4198872 22.5805361,68.9213193 C23.0861327,69.3677896 23.6190179,70.0092614 24.0131861,70.7900198 L21.7103338,72.1294309" id="Fill-24"></path>
                <polyline id="Fill-25" points="33.8711831 70.6785904 33.8711831 86.606966 31.006641 86.606966 31.006641 70.6785904 26.7094487 70.6785904 26.7094487 68.0012741 38.1683753 68.0012741 38.1683753 70.6785904 33.8711831 70.6785904"></polyline>
                <path d="M56.4236726,77.3176723 C56.4236726,73.1895156 53.5591304,70.2885877 49.5424041,70.2885877 C45.5264358,70.2885877 42.6618936,73.1895156 42.6618936,77.3176723 C42.6618936,81.4465819 45.5264358,84.3475098 49.5424041,84.3475098 C53.5591304,84.3475098 56.4236726,81.4465819 56.4236726,77.3176723 Z M59.2882147,77.3176723 C59.2882147,82.7852401 55.159302,86.9698644 49.5424041,86.9698644 C43.9255062,86.9698644 39.7973515,82.7852401 39.7973515,77.3176723 C39.7973515,71.8508574 43.9255062,67.6662332 49.5424041,67.6662332 C55.159302,67.6662332 59.2882147,71.8508574 59.2882147,77.3176723 L59.2882147,77.3176723 Z" id="Fill-26"></path>
                <path d="M66.3097161,76.5369139 L67.207965,76.5369139 C67.9947855,76.5369139 71.1958867,76.4533419 71.1958867,73.4966992 C71.1958867,70.8743447 68.6967082,70.6228758 67.2921047,70.6228758 L66.3097161,70.6228758 L66.3097161,76.5369139 Z M66.7872661,68.0012741 C69.0620719,68.0012741 70.5220105,68.2798475 71.7302879,69.0892162 C73.7799629,70.4557317 73.9482425,72.6594732 73.9482425,73.4688419 C73.9482425,76.1461582 72.2912197,78.0991836 69.7920412,78.6570834 L75.6333118,86.606966 L72.1790333,86.606966 L66.8153127,78.9921243 L66.3097161,78.9921243 L66.3097161,86.606966 L63.445174,86.606966 L63.445174,68.0012741 L66.7872661,68.0012741 L66.7872661,68.0012741 Z" id="Fill-27"></path>
                <polyline id="Fill-28" points="82.9079906 78.5735113 76.7574494 68.0012741 80.0154018 68.0012741 84.3406406 75.4489718 88.6651214 68.0012741 91.9230738 68.0012741 85.7725327 78.5735113 85.7725327 86.606966 82.9079906 86.606966 82.9079906 78.5735113"></polyline>
                <path d="M0.46011566,103.056349 L103.958851,103.056349 L103.958851,0.255986373 L0.46011566,0.255986373 L0.46011566,103.056349 Z M2.16565147,101.362322 L102.253315,101.362322 L102.253315,1.95001384 L2.16565147,1.95001384 L2.16565147,101.362322 Z" id="Fill-30"></path>
            </g>
        </g>
    </g>
</svg>