<?xml version="1.0" encoding="utf-8"?>
<!-- Generator: Adobe Illustrator 26.2.1, SVG Export Plug-In . SVG Version: 6.00 Build 0)  -->
<svg version="1.1" id="Layer_1" xmlns="http://www.w3.org/2000/svg" xmlns:xlink="http://www.w3.org/1999/xlink" x="0px" y="0px"
	 viewBox="0 0 300 300" style="enable-background:new 0 0 300 300;" xml:space="preserve">
<style type="text/css">
	.st0{fill:white;}
</style>
<path class="st0" d="M109.2,242.7c-25.2,0-49.8-7.2-71-20.8c-1.3-0.8-1.9-2.5-1.3-3.9c0.5-1.5,2-2.4,3.5-2.2
	c3.4,0.4,6.9,0.6,10.4,0.6c16.9,0,33-4.7,47-13.6c-16.9-3.5-30.9-15.8-36.3-32.7c-0.4-1.1-0.1-2.4,0.7-3.2c0.8-0.9,2-1.3,3.1-1.1
	c1.7,0.3,3.4,0.6,5.2,0.7c-15-8.4-25-24.5-25-42.4c0-0.3,0-0.5,0-0.7c0.1-1.2,0.7-2.2,1.7-2.8s2.2-0.6,3.2,0c2.4,1.4,5,2.5,7.7,3.3
	c-7.8-8.8-12.3-20.2-12.3-32.3c0-8.6,2.3-17,6.6-24.4c0.6-0.9,1.5-1.6,2.6-1.7c1.1-0.1,2.2,0.4,2.9,1.2
	c21.4,26.3,52.7,42.8,86.4,45.6c-0.3-2.2-0.4-4.4-0.4-6.7c0-26.7,21.8-48.5,48.5-48.5c12.7,0,25,5.1,34.1,14
	c9.1-2,17.8-5.4,25.8-10.2c1.2-0.7,2.7-0.6,3.8,0.3s1.5,2.3,1.1,3.6c-2.2,6.8-5.8,12.9-10.6,18.1c4.1-1.1,8.2-2.6,12.1-4.3
	c1.4-0.6,3-0.2,3.9,0.9c1,1.1,1.1,2.8,0.2,4c-6,8.9-13.3,16.7-21.9,23.2c0,1.4,0.1,2.8,0.1,4.2c0,32-12.4,64.3-33.9,88.8
	C189.8,219.4,158.8,242.7,109.2,242.7z M53.7,223.1c17.2,8.5,36.1,13,55.5,13c47.1,0,76.5-22.1,92.8-40.7
	c20.5-23.2,32.2-54,32.2-84.4c0-2,0-3.9-0.1-5.7c-0.1-1.1,0.5-2.2,1.4-2.9c5.5-4,10.4-8.5,14.8-13.5c-5.2,1.5-10.5,2.6-15.9,3.3
	c-1.6,0.2-3.1-0.7-3.6-2.2c-0.5-1.5,0.1-3.1,1.4-4c6.1-3.6,11.1-8.7,14.6-14.7c-6.7,3.1-13.8,5.4-21,6.8c-1.1,0.2-2.3-0.2-3.1-1
	c-7.9-8.4-19-13.2-30.5-13.2c-23,0-41.8,18.7-41.8,41.8c0,3.3,0.4,6.5,1.1,9.5c0.2,1,0,2.1-0.7,2.9c-0.7,0.8-1.7,1.2-2.7,1.2
	c-35.4-1.8-68.7-17.9-92.2-44.5c-2.3,5.2-3.5,10.9-3.5,16.7c0,14,7,27,18.6,34.8c1.2,0.8,1.8,2.4,1.3,3.8c-0.5,1.4-1.8,2.4-3.3,2.3
	c-5.7-0.2-11.4-1.4-16.7-3.6c2.1,17.7,15.4,32.5,33.2,36.1c1.5,0.3,2.6,1.6,2.7,3.2c0.1,1.6-1,2.9-2.5,3.3c-5.2,1.4-10.6,2-16.1,1.6
	c6.7,14.2,21,23.7,37,24c1.4,0,2.7,0.9,3.1,2.3c0.4,1.3,0,2.8-1.1,3.7C92.9,215.6,73.9,222.4,53.7,223.1z"/>
</svg>
