<?xml version="1.0" encoding="utf-8"?>
<!-- Generator: Adobe Illustrator 26.2.1, SVG Export Plug-In . SVG Version: 6.00 Build 0)  -->
<svg version="1.1" id="Layer_1" xmlns="http://www.w3.org/2000/svg" xmlns:xlink="http://www.w3.org/1999/xlink" x="0px" y="0px"
	 viewBox="0 0 300 300" style="enable-background:new 0 0 300 300;" xml:space="preserve">
<style type="text/css">
	.st0{fill:white;}
</style>
<g>
	<path class="st0" d="M164.8,247.7c-0.8,0-1.6-0.3-2.2-0.8c-0.7-0.6-1.2-1.6-1.2-2.5V178c0-1.8,1.5-3.3,3.3-3.3h19.3l3.2-20.8h-22.5
		c-1.8,0-3.3-1.5-3.3-3.3v-17.8c0-11.4,7-18.2,18.8-18.2h8.7V97.4c-3.8-0.5-11-1.4-17.9-1.4c-20.7,0-32.6,12.3-32.6,33.6v20.9
		c0,1.8-1.5,3.3-3.3,3.3h-20.8v20.8h20.8c1.8,0,3.3,1.5,3.3,3.3v66.4c0,1-0.4,1.9-1.2,2.5c-0.7,0.6-1.7,0.9-2.7,0.8
		c-22.9-3.6-43.9-15.3-59.1-32.9c-15.4-17.8-23.9-40.6-23.9-64.2c0-54.2,44.1-98.3,98.3-98.3s98.3,44.1,98.3,98.3
		c0,23.6-8.5,46.4-23.9,64.2c-15.2,17.6-36.2,29.3-59.1,32.9C165.2,247.7,165,247.7,164.8,247.7z M168.2,181.4v59.1
		c19.8-4,37.9-14.6,51.3-30c14.3-16.6,22.2-37.9,22.2-59.9c0-50.5-41.1-91.7-91.7-91.7S58.3,100,58.3,150.6c0,22,7.9,43.2,22.2,59.9
		c13.3,15.5,31.4,26,51.3,30v-59.1H111c-1.8,0-3.3-1.5-3.3-3.3v-27.5c0-1.8,1.5-3.3,3.3-3.3h20.8v-17.6c0-24.8,15-40.3,39.2-40.3
		c10.6,0,21.4,1.8,21.8,1.9c1.6,0.3,2.8,1.7,2.8,3.3v23.4c0,1.8-1.5,3.3-3.3,3.3h-12c-8.1,0-12.2,3.9-12.2,11.5v14.5h23
		c1,0,1.9,0.4,2.5,1.2c0.6,0.7,0.9,1.7,0.8,2.7l-4.2,27.5c-0.2,1.6-1.6,2.8-3.3,2.8H168.2z"/>
</g>
</svg>
