<?xml version="1.0" encoding="utf-8"?>
<!-- Generator: Adobe Illustrator 26.3.1, SVG Export Plug-In . SVG Version: 6.00 Build 0)  -->
<svg version="1.1" id="Layer_1" xmlns="http://www.w3.org/2000/svg" xmlns:xlink="http://www.w3.org/1999/xlink" x="0px" y="0px"
	 viewBox="0 0 24 24" style="enable-background:new 0 0 24 24;" xml:space="preserve">
<style type="text/css">
	.st0{fill:#fff;}
</style>
<path class="st0" d="M18.9,14.5h-1.2c-0.3,0-0.6,0.3-0.6,0.6v4.4H4.5V7h5.6c0.3,0,0.6-0.3,0.6-0.6V5.1c0-0.3-0.3-0.6-0.6-0.6H3.9
	C2.8,4.5,2,5.3,2,6.4v13.8c0,1,0.8,1.9,1.9,1.9l0,0h13.8c1,0,1.9-0.8,1.9-1.9l0,0v-5C19.5,14.8,19.2,14.5,18.9,14.5z M21.1,2h-5
	c-0.8,0-1.3,1-0.7,1.6L16.8,5l-9.5,9.5c-0.4,0.4-0.4,1,0,1.3c0,0,0,0,0,0l0.9,0.9c0.4,0.4,1,0.4,1.3,0c0,0,0,0,0,0L19,7.2l1.4,1.4
	C21,9.2,22,8.8,22,7.9v-5C22,2.4,21.6,2,21.1,2z"/>
</svg>
