<?xml version="1.0" encoding="utf-8"?>
<!-- Generator: Adobe Illustrator 26.2.1, SVG Export Plug-In . SVG Version: 6.00 Build 0)  -->
<svg version="1.1" id="Layer_1" xmlns="http://www.w3.org/2000/svg" xmlns:xlink="http://www.w3.org/1999/xlink" x="0px" y="0px"
	 viewBox="0 0 300 300" style="enable-background:new 0 0 300 300;" xml:space="preserve">
<style type="text/css">
	.st0{fill:white;}
</style>
<g>
	<path class="st0" d="M150,227c-2.7,0-66.3-0.1-83-4.5c-10.2-2.7-18.3-10.8-21-21c-4.5-16.6-4.5-50-4.5-51.5s0.1-34.8,4.5-51.5
		c2.7-10.2,10.8-18.3,21-21C83.7,73.1,147.3,73,150,73s66.3,0.1,83,4.5c10.2,2.7,18.3,10.8,21,21l0,0c4.5,16.6,4.5,50,4.5,51.5
		s-0.1,34.8-4.5,51.5c-2.7,10.2-10.8,18.3-21,21C216.3,226.9,152.7,227,150,227z M150,80c-0.7,0-65.4,0-81.1,4.3
		c-7.8,2.1-14,8.3-16.1,16.1c-4.2,15.8-4.3,49.3-4.3,49.6s0.1,33.9,4.3,49.6c2.1,7.8,8.3,14,16.1,16.1c15.7,4.2,80.5,4.3,81.1,4.3
		s65.4,0,81.1-4.3c7.8-2.1,14-8.3,16.1-16.1c4.2-15.7,4.3-49.3,4.3-49.6s-0.1-33.9-4.3-49.6v0c-2.1-7.8-8.3-14-16.1-16.1
		C215.4,80,150.7,80,150,80z"/>
	<path class="st0" d="M129,185c-0.6,0-1.2-0.2-1.8-0.5c-1.1-0.6-1.8-1.8-1.8-3v-63c0-1.3,0.7-2.4,1.8-3c1.1-0.6,2.4-0.6,3.5,0
		l54.6,31.5c1.1,0.6,1.8,1.8,1.8,3c0,1.2-0.7,2.4-1.8,3l-54.6,31.5C130.2,184.8,129.6,185,129,185z M132.5,124.6v50.9l44.1-25.4
		L132.5,124.6z"/>
</g>
</svg>
