<?xml version="1.0" encoding="utf-8"?>
<!-- Generator: Adobe Illustrator 26.2.1, SVG Export Plug-In . SVG Version: 6.00 Build 0)  -->
<svg version="1.1" id="Layer_1" xmlns="http://www.w3.org/2000/svg" xmlns:xlink="http://www.w3.org/1999/xlink" x="0px" y="0px"
	 viewBox="0 0 540 90" style="enable-background:new 0 0 540 90;" xml:space="preserve">
<g>
	<path d="M11.1,61.9C11.1,61.9,11,61.9,11.1,61.9c-4.4,0-7.1,4.9-7.1,8.4c0,2,0.5,3.7,1.3,5c0.9,1.5,2.3,2.2,4.1,2.2c0,0,0,0,0.1,0
		h0.3c1.9,0,3.7-1,4.9-2.8c1.2-1.7,1.8-3.9,1.8-6.2C16.4,65.2,14.6,61.9,11.1,61.9z M13.2,69c-0.3,3.1-1.6,6.4-3.8,6.2
		c-1.9-0.1-2.3-2.4-2.3-4.3c0-3.1,1.8-6.8,3.9-6.9l0,0c0.5,0,0.9,0.2,1.3,0.6C13,65.4,13.4,67.1,13.2,69z"/>
	<path d="M27.7,52.8c-2.4,0-4.6,2.2-4.9,4.9l-0.6,5h-2.4l-0.2,2H22l-1.8,17c-0.1,1-0.5,2.7-2.2,2.7c-0.5,0-1.1-0.2-1.7-0.5l-0.4-0.2
		l-0.1,2.4l0.2,0.1c0.9,0.3,1.6,0.4,2.3,0.4c0,0,0,0,0.1,0c2.5,0,4.6-2.2,4.9-5l1.8-16.8h3.4l0.2-2h-3.4l0.6-5.1
		c0.2-1.7,1-2.7,2.2-2.7l0,0c0.4,0,1,0.2,1.5,0.5l0.4,0.3l0.3-2.3l-0.2-0.1C29.6,53.1,28.6,52.8,27.7,52.8z"/>
	<path d="M46.2,58.2l-2.9,1.4L43,62.8h-2.4l-0.2,1.8h2.4L42,72.8c-0.1,1.4,0.2,2.6,1,3.5c0.6,0.7,1.5,1.1,2.4,1.1l0,0
		c1.5,0,2.2-0.3,3.4-0.9l0.6-0.3l0.2-2l-0.8,0.3c-0.8,0.3-1.3,0.5-2,0.5c-0.4,0-0.8-0.2-1.1-0.5c-0.4-0.5-0.7-1.3-0.6-2.2l0.7-7.7
		h4.1l0.2-1.9H46L46.2,58.2z"/>
	<path d="M67.9,73.8c-0.3,0.4-0.8,0.9-1,0.9l0,0c-0.2,0-0.2-0.1-0.3-0.1c-0.1-0.2-0.1-0.6-0.1-0.9l0.9-7.7c0.1-1.3-0.1-2.5-0.8-3.4
		c-0.6-0.7-1.3-1.1-2.3-1.2c-2.4-0.2-4.3,0.9-5.5,1.6l0.7-10.7l-3.2,1.4l-1.6,22.9h3l0.9-11.3c0.6-0.6,2-1.5,3.1-1.5
		c0.7,0,1.5,0.4,2,0.9c0.3,0.3,0.6,0.9,0.6,1.7l-0.8,7.3c-0.1,0.9,0.2,1.9,0.8,2.5c0.4,0.5,1,0.8,1.6,0.8l0,0c1.4,0,2.4-1,3.2-2.1
		l0.2-0.2l-1.2-1.1L67.9,73.8z"/>
	<path d="M77.6,74.7c-1.8-0.1-2.6-1.6-2.5-4.2c0-0.1,0-0.2,0-0.3s0-0.1,0-0.2c0.5,0.1,1.2,0.1,2.1,0.1c2.8,0,6.8-2.1,6.7-5.2
		c0-1.9-1.8-3.5-3.7-3.5l0,0c-4.4,0-8.2,5-8.1,9c0,4.1,2,6.6,5.4,6.7c0.1,0,0.1,0,0.2,0c1.9,0,4.1-1,4.9-1.7l0.1-0.1l0.2-3l-0.6,0.6
		C81.4,73.7,79.2,74.8,77.6,74.7z M75.4,68c0.4-2,2.6-4.7,4.4-4.7l0,0l0,0c0.8,0,1.2,0.8,1.2,1.5c0,2.1-3,3.3-4.6,3.3
		C76,68.2,75.6,68,75.4,68z"/>
	<polygon points="23.7,34 10.2,11.7 10.3,34 5.7,34 5.7,4.2 11.1,4.2 24,25.4 23.9,4.2 28.5,4.2 28.5,34 	"/>
	<path d="M59.2,34.5l-3.1-9.2h-10l-3.2,9.2l-4.7-0.7L49.3,4.2h4.4l10.2,29.6L59.2,34.5z M51.2,10.1l-3.8,11.5h7.4L51.2,10.1z"/>
	<polygon points="82.2,8.3 82.2,34 77.3,34 77.3,8.3 68.5,8.3 68.5,4.2 91.1,4.2 91.1,8.3 	"/>
	<rect x="102.1" y="4.2" width="4.9" height="29.8"/>
	<path d="M131.8,34.8c-8.4,0-12.2-7.3-12.2-15.7c0-9.4,5.2-15.8,12.2-15.8c8.4,0,12.3,7.4,12.3,15.8
		C144.2,28.4,138.8,34.8,131.8,34.8 M131.5,7.4c-5.8,0-6.7,6.6-6.7,10.8c-0.1,4.8,0.9,12.5,7.3,12.5c5.9,0,6.8-6.5,6.8-10.8
		C138.9,15.1,138.1,7.4,131.5,7.4"/>
	<polygon points="174.6,34 161.1,11.7 161.2,34 156.6,34 156.6,4.2 162,4.2 174.9,25.4 174.8,4.2 179.4,4.2 179.4,34 	"/>
	<path d="M210.1,34.5l-3-9.2h-10l-3.2,9.2l-4.7-0.7l11-29.6h4.4l10.2,29.6L210.1,34.5z M202.1,10.1l-3.8,11.5h7.4L202.1,10.1z"/>
	<polygon points="225.7,34 225.7,4.2 230.6,4.2 230.6,30.1 241.8,30.1 241.8,34 	"/>
	<polygon points="291.1,34.2 289.9,12.1 283.2,34 278.8,34 272.2,12.1 270.8,34.2 266.1,34 268.3,4.2 274.3,4.2 281.3,27 288.2,4.2 
		294,4.2 296,34 	"/>
	<path d="M320.2,34.6c-6.4,0-11-4-11-10.3V4.2h4.9v20.3c0,3.2,2.3,6.1,6.1,6.1c3.7,0,6-2.6,6-6.2V4.2h4.9v20.1
		C331.1,31,325.7,34.6,320.2,34.6"/>
	<path d="M351.4,34.8c-2.9,0-6.5-1.4-8.8-2.5l2.1-4c1.9,1.1,5.1,2.5,7.2,2.5c3,0,4.9-1.7,4.9-4c0-6.4-12.9-6.4-12.9-15.6
		c0-4.3,3.8-7.7,8.6-7.7c3.9,0,6.8,1.2,8.5,2.2l-1.8,3.7c-1.9-1-4.2-2-6.6-2c-1.9,0-3.7,1.4-3.7,3.4c0,5.8,13,6.2,13,15.4
		C362.1,31.9,357.8,34.8,351.4,34.8"/>
	<polygon points="375.1,34 375.1,4.2 391.6,4.2 391.6,8.1 380,8.1 380,16.8 389.7,16.8 389.7,20.6 380,20.6 380,30.1 392.9,30.1 
		392.9,34 	"/>
	<path d="M416.6,34.6c-6.4,0-11-4-11-10.3V4.2h4.9v20.3c0,3.2,2.3,6.1,6.1,6.1c3.7,0,6-2.6,6-6.2V4.2h4.9v20.1
		C427.4,31,422.1,34.6,416.6,34.6"/>
	<polygon points="466.5,34.2 465.3,12.1 458.6,34 454.2,34 447.5,12.1 446.2,34.2 441.5,34 443.7,4.2 449.7,4.2 456.6,27 463.6,4.2 
		469.4,4.2 471.4,34 	"/>
	<path d="M117.7,77.2l-3.1-9.2h-10l-3.2,9.2l-4.7-0.7l11.1-29.6h4.4l10.2,29.6L117.7,77.2z M109.7,52.6l-3.8,11.5h7.4L109.7,52.6z"
		/>
	<polygon points="157,76.8 155.9,54.6 149.1,76.7 144.8,76.7 138.1,54.6 136.8,76.8 132.1,76.7 134.3,46.8 140.2,46.8 147.2,69.7 
		154.2,46.8 159.9,46.8 162,76.7 	"/>
	<polygon points="175.4,76.7 175.4,46.8 191.9,46.8 191.9,50.8 180.3,50.8 180.3,59.3 190,59.3 190,63.2 180.3,63.2 180.3,72.8 
		193.2,72.8 193.2,76.7 	"/>
	<path d="M220.2,77.2l-6.7-13.5c-0.2,0.1-0.4,0.1-0.6,0.1h-2.6v12.9h-4.9V46.8h7.9c6.6,0,9.9,3.8,9.9,8.3c0,4.1-3.2,6.6-5.1,7.6
		l7.5,13.5L220.2,77.2z M213.2,50.5h-3v9.4h3c3,0,4.9-1.5,4.9-4.6C218.1,52.8,216.6,50.5,213.2,50.5"/>
	<rect x="239.5" y="46.8" width="4.9" height="29.8"/>
	<path d="M270.8,77.3c-7.9,0-13.2-4.6-13.2-15.9c0-9.5,5.5-15.5,14.3-15.5c2.3,0,5,0.8,6.7,1.7l-1.5,3.6c-1.9-0.7-3.5-1.2-5.2-1.2
		c-4,0-9.1,2.6-9.1,11.2c0,9.2,3.4,11.8,8.3,11.8c3.2,0,4.5-0.5,7.1-1.6l1.3,3.8C277.5,76.2,274.2,77.3,270.8,77.3"/>
	<path d="M307.8,77.2l-3-9.2h-10l-3.2,9.2l-4.7-0.7L298,46.8h4.4l10.2,29.6L307.8,77.2z M299.8,52.6L296,64.1h7.4L299.8,52.6z"/>
	<polygon points="340.1,76.7 326.6,54.2 326.7,76.7 322.1,76.7 322.1,46.8 327.4,46.8 340.4,68 340.3,46.8 344.8,46.8 344.8,76.7 	
		"/>
	<rect x="373.8" y="46.8" width="4.9" height="29.8"/>
	<polygon points="410.9,76.7 397.4,54.2 397.5,76.7 392.9,76.7 392.9,46.8 398.3,46.8 411.3,68 411.2,46.8 415.7,46.8 415.7,76.7 	
		"/>
	<path d="M437,76.7h-8.6V46.8h8.8c9.1,0,12.6,6.7,12.6,14.6C449.8,71.3,444.9,76.7,437,76.7 M436.9,50.6h-3.5v22.2h3.2
		c5.2,0,8-3.1,8-11.4C444.5,56.1,442.5,50.6,436.9,50.6"/>
	<rect x="461.7" y="46.8" width="4.9" height="29.8"/>
	<path d="M498.1,77.2l-3-9.2h-10l-3.2,9.2l-4.7-0.7l11.1-29.6h4.4l10.2,29.6L498.1,77.2z M490.1,52.6l-3.8,11.5h7.4L490.1,52.6z"/>
	<polygon points="531.2,76.7 517.7,54.2 517.8,76.7 513.2,76.7 513.2,46.8 518.6,46.8 531.5,68 531.4,46.8 536,46.8 536,76.7 	"/>
</g>
</svg>
