<?xml version="1.0" encoding="utf-8"?>
<!-- Generator: Adobe Illustrator 26.2.1, SVG Export Plug-In . SVG Version: 6.00 Build 0)  -->
<svg version="1.1" id="Layer_1" xmlns="http://www.w3.org/2000/svg" xmlns:xlink="http://www.w3.org/1999/xlink" x="0px" y="0px"
	 viewBox="0 0 150 26" style="enable-background:new 0 0 150 26;" xml:space="preserve">
<style type="text/css">
	.st0{fill:#FFFFFF;}
</style>
<g>
	<g>
		<path class="st0" d="M36.1,8.5C35.7,7,35.1,5.3,33,5.3c-1.9,0-2.7,1.4-2.7,2.6c0,1.8,1.2,2.6,3,3.5c1.9,0.9,4.1,2.1,4.1,4.8
			c0,2.5-2.1,4.6-5.3,4.6c-1,0-1.8-0.2-2.4-0.3c-0.6-0.3-0.9-0.4-1.2-0.5c-0.2-0.5-0.5-2.6-0.7-3.7l0.7-0.2c0.4,1.4,1.4,3.9,4,3.9
			c1.8,0,2.9-1.1,2.9-2.9s-1.4-2.6-3.1-3.6c-1.5-0.8-4-2-4-4.7c0-2.3,1.9-4.3,5-4.3c1.1,0,2.1,0.3,3,0.6c0.1,0.8,0.3,1.8,0.4,3.3
			L36.1,8.5z"/>
		<path class="st0" d="M52.3,20.6V20c1.4-0.2,1.7-0.3,1.7-1.9V14c0-1.7-0.6-2.8-2.1-2.8c-0.8,0-1.8,0.5-2.7,1.3
			c0.1,0.3,0.1,0.6,0.1,1v4.7c0,1.5,0.3,1.7,1.5,1.8v0.6h-5.1V20c1.5-0.2,1.7-0.3,1.7-1.9V14c0-1.8-0.6-2.8-2.1-2.8
			c-0.9,0-1.9,0.7-2.6,1.3v5.7c0,1.6,0.2,1.7,1.4,1.9v0.6h-5.1V20c1.6-0.2,1.8-0.3,1.8-1.9v-5c0-1.5-0.1-1.7-1.4-1.9v-0.6
			c1.1-0.2,2.3-0.5,3.4-1v1.9c0.5-0.3,1-0.8,1.8-1.3c0.6-0.4,1.2-0.7,1.9-0.7c1.2,0,2.2,0.8,2.7,1.9c0.7-0.5,1.4-1,2-1.4
			c0.5-0.3,1.1-0.6,1.8-0.6c1.9,0,3,1.4,3,3.7V18c0,1.6,0.2,1.7,1.6,1.9v0.6L52.3,20.6L52.3,20.6z"/>
		<path class="st0" d="M58.8,20.6V20c1.5-0.2,1.7-0.3,1.7-1.9v-5c0-1.5-0.1-1.6-1.5-1.9v-0.6c1.3-0.2,2.4-0.5,3.5-0.9V18
			c0,1.6,0.2,1.8,1.7,1.9v0.6C64.1,20.6,58.8,20.6,58.8,20.6z M60,6.4c0-0.8,0.6-1.3,1.3-1.3s1.2,0.5,1.2,1.3c0,0.7-0.5,1.3-1.3,1.3
			C60.6,7.7,60,7.1,60,6.4z"/>
		<path class="st0" d="M69.7,20.5c-0.4,0.3-0.8,0.3-1,0.3c-1.5,0-2.4-0.9-2.4-2.9v-7h-1.7l-0.1-0.3l0.7-0.7h1.1V8.3L68,6.6l0.3,0.1
			V10H71c0.3,0.3,0.2,0.8-0.2,0.9h-2.6v6.2c0,1.9,0.8,2.3,1.4,2.3c0.6,0,1.2-0.3,1.5-0.4l0.3,0.6L69.7,20.5z"/>
		<path class="st0" d="M78.9,20.6V20c1.4-0.2,1.6-0.3,1.6-1.9v-4c0-1.9-0.8-3-2.4-3c-0.9,0-1.9,0.4-2.5,1.3v5.7
			c0,1.5,0.1,1.7,1.5,1.9v0.6H72v-0.6c1.4-0.1,1.7-0.3,1.7-1.9V6.6c0-1.5-0.1-1.6-1.6-1.8V4.2c1.2-0.2,2.6-0.6,3.5-0.8v8.1
			c0.8-0.8,2.1-1.8,3.5-1.8c1.9,0,3.3,1.3,3.3,4.1V18c0,1.6,0.2,1.8,1.6,1.9v0.6L78.9,20.6L78.9,20.6z"/>
		<path class="st0" d="M91.4,12.9c-0.4-1.4-1.3-2.4-2.4-2.4c-0.9,0-1.6,0.8-1.6,1.7c0,1.1,0.9,1.6,2,2.1c1.8,0.8,3,1.6,3,3.3
			c0,2.2-2,3.3-4,3.3c-1.3,0-2.4-0.4-2.8-0.8c-0.2-0.3-0.4-1.9-0.4-2.9l0.6-0.1c0.4,1.6,1.5,3,3,3c0.9,0,1.7-0.7,1.7-1.7
			c0-1.1-0.7-1.6-1.9-2.2c-1.4-0.7-3-1.4-3-3.3c0-1.7,1.4-3.1,3.6-3.1c1,0,1.6,0.3,2.1,0.4c0.2,0.6,0.4,1.9,0.5,2.6L91.4,12.9z"/>
		<path class="st0" d="M104.8,15.1c0,3.9-2.9,5.7-5.2,5.7c-3.3,0-5.3-2.6-5.3-5.3c0-4,3.1-5.8,5.3-5.8
			C102.6,9.7,104.8,12.1,104.8,15.1z M96.5,14.8c0,3,1.4,5.3,3.3,5.3c1.5,0,2.7-1.1,2.7-4.4c0-2.8-1.1-5.1-3.2-5.1
			C97.8,10.5,96.5,12,96.5,14.8z"/>
		<path class="st0" d="M113,20.6V20c1.4-0.2,1.6-0.3,1.6-2v-4.1c0-1.7-0.6-2.8-2.2-2.8c-0.9,0-1.9,0.6-2.6,1.3V18
			c0,1.6,0.2,1.8,1.6,1.9v0.6h-5.2v-0.6c1.6-0.2,1.8-0.3,1.8-1.9v-5c0-1.5-0.2-1.6-1.4-1.9v-0.6c1.2-0.3,2.3-0.5,3.4-1v1.9
			c0.5-0.3,1-0.8,1.6-1.1c0.7-0.4,1.3-0.8,2-0.8c1.9,0,3.1,1.4,3.1,3.6V18c0,1.6,0.1,1.8,1.5,1.9v0.6H113V20.6z"/>
		<path class="st0" d="M119.4,20.6V20c1.5-0.2,1.7-0.3,1.7-1.9v-5c0-1.5-0.1-1.6-1.5-1.9v-0.6c1.3-0.2,2.4-0.5,3.5-0.9V18
			c0,1.6,0.2,1.8,1.7,1.9v0.6C124.7,20.6,119.4,20.6,119.4,20.6z M120.6,6.4c0-0.8,0.6-1.3,1.3-1.3c0.7,0,1.2,0.5,1.2,1.3
			c0,0.7-0.5,1.3-1.3,1.3C121.2,7.7,120.6,7.1,120.6,6.4z"/>
		<path class="st0" d="M133.5,20.8c-0.3,0-0.8-0.3-1.1-0.4c-0.3-0.3-0.4-0.7-0.6-1.1c-0.9,0.7-2.1,1.5-2.9,1.5c-1.7,0-2.9-1.4-2.9-3
			c0-1.2,0.6-1.9,1.9-2.4c1.4-0.5,3.2-1.1,3.7-1.6v-0.4c0-1.8-0.8-2.7-2-2.7c-0.5,0-0.8,0.2-1.1,0.5c-0.3,0.3-0.5,0.8-0.8,1.6
			c-0.1,0.4-0.3,0.6-0.7,0.6c-0.4,0-1.1-0.5-1.1-1c0-0.3,0.3-0.6,0.8-0.9c0.7-0.5,2.3-1.4,3.6-1.7c0.8,0,1.4,0.3,1.9,0.7
			c0.8,0.7,1.1,1.7,1.1,3v4.3c0,1.1,0.4,1.4,0.8,1.4c0.3,0,0.6-0.1,0.8-0.3l0.3,0.6L133.5,20.8z M131.8,14.8c-0.5,0.3-1.7,0.8-2.2,1
			c-0.9,0.4-1.4,0.9-1.4,1.8c0,1.3,0.9,1.9,1.7,1.9c0.6,0,1.4-0.4,1.9-0.8V14.8z"/>
		<path class="st0" d="M143.1,20.6V20c1.4-0.2,1.6-0.3,1.6-2v-4.1c0-1.7-0.6-2.8-2.2-2.8c-0.9,0-1.9,0.6-2.6,1.3V18
			c0,1.6,0.2,1.8,1.6,1.9v0.6h-5.2v-0.6c1.6-0.2,1.8-0.3,1.8-1.9v-5c0-1.5-0.2-1.6-1.4-1.9v-0.6c1.2-0.3,2.3-0.5,3.4-1v1.9
			c0.5-0.3,1-0.8,1.6-1.1c0.7-0.4,1.3-0.8,2-0.8c1.9,0,3.1,1.4,3.1,3.6V18c0,1.6,0.1,1.8,1.5,1.9v0.6h-5.1V20.6z"/>
	</g>
	<g>
		<path class="st0" d="M18.8,15c-0.8-1.3-1.9-1.3-2-1.3l0,0l4.8-1l-4.8-1l0,0c0.1-0.1,1-0.8,2.4-0.9c1.1,0,2-1.4,1.4-2.3
			c0,0-0.2,1.6-2.2,1C17,9.2,16.2,9.9,16.1,10l0,0l2.7-4.1l-4.1,2.7l0,0c0-0.1,0.1-1.4,1.1-2.4c0.8-0.8,0.5-2.4-0.7-2.6
			c0,0,1,1.3-0.8,2.3c-1.3,0.8-1.3,1.9-1.3,2l0,0l-1-4.8l-1,4.8l0,0c0-0.1-0.8-1-0.9-2.4c0-1.1-1.4-2-2.3-1.4c0,0,1.6,0.2,1,2.2
			C8.5,7.7,9.3,8.5,9.4,8.6l0,0L5.3,5.9l0,0l0,0l2.2,3.4L8,10l0,0c0,0-1.4-0.1-2.4-1.1C4.8,8.2,3.2,8.4,3,9.6c0,0,1.3-1,2.3,0.8
			c0.8,1.3,1.9,1.3,2,1.3l0,0l-4.8,1l4.8,1l0,0c0,0-1,0.8-2.4,0.9c-1.1,0-2,1.4-1.4,2.3c0,0,0.2-1.6,2.2-1c1.4,0.3,2.2-0.4,2.3-0.5
			l0,0l-2.7,4.1l4.1-2.7c0,0.1-0.1,1.4-1.1,2.4c-0.8,0.8-0.5,2.4,0.7,2.6c0,0-1-1.3,0.8-2.3c1.3-0.8,1.3-1.9,1.3-2l0,0l1,4.8l1-4.8
			l0,0c0,0,0.8,1,0.9,2.4c0,1.1,1.4,2,2.3,1.4c0,0-1.6-0.2-1-2.2c0.3-1.4-0.4-2.2-0.5-2.3l0,0l4.1,2.7l-1.4-2.2l-1.3-1.9l0,0
			c0.1,0,1.4,0.1,2.4,1.1c0.8,0.8,2.4,0.5,2.6-0.7C21.1,15.8,19.9,16.8,18.8,15z"/>
	</g>
</g>
</svg>
