<?xml version="1.0" encoding="utf-8"?>
<!-- Generator: Adobe Illustrator 26.2.1, SVG Export Plug-In . SVG Version: 6.00 Build 0)  -->
<svg version="1.1" id="Layer_1" xmlns="http://www.w3.org/2000/svg" xmlns:xlink="http://www.w3.org/1999/xlink" x="0px" y="0px"
	 viewBox="0 0 150 26" style="enable-background:new 0 0 150 26;" xml:space="preserve">
<style type="text/css">
	.st0{fill:#111821;}
	.st1{fill:#FFFFFF;}
</style>
<g>
	<g>
		<g>
			<path class="st0" d="M36.6,8.7c-0.4-1.5-1-3.1-3.1-3.1c-1.8,0-2.6,1.3-2.6,2.6c0,1.7,1.1,2.5,3,3.5c1.8,0.9,4.1,2,4.1,4.7
				c0,2.5-2.1,4.4-5.2,4.4c-1,0-1.7-0.2-2.3-0.4c-0.6-0.2-0.9-0.4-1.1-0.5c-0.2-0.5-0.5-2.5-0.6-3.6l0.7-0.2
				c0.4,1.4,1.4,3.8,3.8,3.8c1.8,0,2.8-1.1,2.8-2.8c0-1.7-1.3-2.6-3-3.5c-1.5-0.8-3.9-2-3.9-4.6c0-2.2,1.8-4.2,4.8-4.2
				c1.1,0,2.1,0.3,3,0.5c0.1,0.8,0.2,1.8,0.4,3.2L36.6,8.7z"/>
			<path class="st0" d="M52.4,20.4v-0.6c1.4-0.1,1.6-0.2,1.6-1.9V14c0-1.7-0.6-2.7-2.1-2.7c-0.8,0-1.7,0.5-2.6,1.2
				c0,0.3,0.1,0.5,0.1,1V18c0,1.5,0.2,1.6,1.5,1.8v0.6h-5v-0.6c1.5-0.1,1.7-0.3,1.7-1.8v-4c0-1.7-0.6-2.7-2-2.7
				c-0.9,0-1.9,0.6-2.6,1.2V18c0,1.5,0.2,1.7,1.3,1.8v0.6h-4.9v-0.6c1.5-0.1,1.8-0.3,1.8-1.8v-4.9c0-1.5-0.1-1.6-1.4-1.8v-0.5
				c1-0.2,2.2-0.5,3.3-1v1.9c0.5-0.3,1-0.7,1.7-1.2c0.6-0.4,1.2-0.6,1.9-0.6c1.1,0,2.1,0.7,2.6,1.9c0.7-0.5,1.4-1,1.9-1.3
				c0.5-0.3,1.1-0.6,1.8-0.6c1.8,0,3,1.3,3,3.6V18c0,1.6,0.2,1.7,1.5,1.8v0.6H52.4z"/>
			<path class="st0" d="M58.6,20.4v-0.6c1.5-0.1,1.6-0.3,1.6-1.9v-4.8c0-1.5-0.1-1.5-1.5-1.8v-0.6c1.2-0.2,2.3-0.5,3.3-0.9v8.1
				c0,1.6,0.2,1.7,1.7,1.9v0.6H58.6z M59.9,6.7c0-0.7,0.6-1.2,1.2-1.2c0.7,0,1.2,0.5,1.2,1.2c0,0.6-0.5,1.2-1.2,1.2
				C60.5,7.9,59.9,7.3,59.9,6.7z"/>
			<path class="st0" d="M69.3,20.4c-0.4,0.2-0.8,0.3-1,0.3c-1.5,0-2.3-0.9-2.3-2.8v-6.8h-1.6l-0.1-0.2l0.6-0.7H66V8.5l1.5-1.5l0.3,0
				v3.2h2.6c0.2,0.2,0.1,0.7-0.1,0.9h-2.5v6c0,1.9,0.8,2.2,1.4,2.2c0.6,0,1.1-0.2,1.5-0.4l0.2,0.6L69.3,20.4z"/>
			<path class="st0" d="M78.3,20.4v-0.6c1.4-0.1,1.5-0.3,1.5-1.8v-3.9c0-1.9-0.7-2.9-2.3-2.9c-0.9,0-1.8,0.4-2.4,1.2V18
				c0,1.5,0.1,1.7,1.5,1.8v0.6h-5v-0.6c1.4-0.1,1.6-0.3,1.6-1.8V6.8c0-1.5,0-1.6-1.6-1.7V4.5c1.1-0.2,2.5-0.5,3.4-0.8v7.9
				c0.8-0.8,2.1-1.7,3.4-1.7c1.9,0,3.2,1.2,3.2,4V18c0,1.5,0.2,1.7,1.5,1.8v0.6H78.3z"/>
			<path class="st0" d="M90.4,12.9c-0.4-1.4-1.3-2.3-2.4-2.3c-0.9,0-1.5,0.7-1.5,1.6c0,1.1,0.9,1.6,2,2c1.8,0.7,3,1.6,3,3.2
				c0,2.1-2,3.2-3.9,3.2c-1.2,0-2.3-0.4-2.7-0.8c-0.2-0.3-0.4-1.9-0.4-2.8l0.6-0.1c0.4,1.5,1.5,2.9,2.9,2.9c0.9,0,1.7-0.7,1.7-1.6
				c0-1-0.7-1.6-1.9-2.1c-1.4-0.7-2.9-1.4-2.9-3.2c0-1.6,1.4-3,3.6-3c1,0,1.6,0.2,2.1,0.4c0.2,0.5,0.4,1.9,0.5,2.5L90.4,12.9z"/>
			<path class="st0" d="M103.4,15.1c0,3.8-2.8,5.6-5.1,5.6c-3.2,0-5.1-2.6-5.1-5.2c0-3.9,3-5.6,5.1-5.6
				C101.2,9.9,103.4,12.2,103.4,15.1z M95.3,14.8c0,3,1.3,5.2,3.2,5.2c1.5,0,2.6-1.1,2.6-4.3c0-2.7-1.1-5-3.1-5
				C96.6,10.7,95.3,12.1,95.3,14.8z"/>
			<path class="st0" d="M111.3,20.4v-0.6c1.4-0.1,1.5-0.3,1.5-1.9v-3.9c0-1.6-0.6-2.7-2.1-2.7c-0.9,0-1.9,0.6-2.6,1.2V18
				c0,1.6,0.1,1.7,1.5,1.8v0.6h-5.1v-0.6c1.6-0.2,1.7-0.3,1.7-1.8v-4.9c0-1.5-0.1-1.6-1.4-1.8v-0.5c1.1-0.2,2.2-0.5,3.3-1v1.9
				c0.5-0.4,1-0.7,1.6-1.1c0.7-0.4,1.3-0.7,1.9-0.7c1.9,0,3,1.3,3,3.6V18c0,1.6,0.1,1.7,1.5,1.8v0.6H111.3z"/>
			<path class="st0" d="M117.5,20.4v-0.6c1.5-0.1,1.6-0.3,1.6-1.9v-4.8c0-1.5-0.1-1.5-1.5-1.8v-0.6c1.2-0.2,2.3-0.5,3.3-0.9v8.1
				c0,1.6,0.2,1.7,1.7,1.9v0.6H117.5z M118.8,6.7c0-0.7,0.6-1.2,1.2-1.2c0.7,0,1.2,0.5,1.2,1.2c0,0.6-0.5,1.2-1.2,1.2
				C119.3,7.9,118.8,7.3,118.8,6.7z"/>
			<path class="st0" d="M131.3,20.7c-0.4,0-0.8-0.2-1.1-0.4c-0.3-0.3-0.4-0.7-0.6-1.1c-0.9,0.6-2.1,1.5-2.8,1.5
				c-1.7,0-2.8-1.4-2.8-2.9c0-1.1,0.6-1.9,1.9-2.3c1.4-0.5,3.1-1.1,3.6-1.5v-0.4c0-1.7-0.8-2.6-2-2.6c-0.5,0-0.8,0.2-1.1,0.5
				c-0.3,0.3-0.5,0.8-0.7,1.5c-0.1,0.4-0.4,0.5-0.7,0.5c-0.4,0-1-0.5-1-1c0-0.4,0.3-0.6,0.7-0.9c0.7-0.5,2.2-1.4,3.5-1.6
				c0.7,0,1.4,0.2,1.9,0.6c0.8,0.7,1.1,1.6,1.1,2.9v4.4c0,1.1,0.4,1.4,0.8,1.4c0.3,0,0.6-0.1,0.8-0.3l0.2,0.6L131.3,20.7z
				 M129.6,14.8c-0.5,0.3-1.6,0.7-2.1,1c-0.9,0.4-1.4,0.9-1.4,1.7c0,1.2,0.9,1.8,1.7,1.8c0.6,0,1.4-0.4,1.9-0.8V14.8z"/>
			<path class="st0" d="M140.6,20.4v-0.6c1.4-0.1,1.5-0.3,1.5-1.9v-3.9c0-1.6-0.6-2.7-2.1-2.7c-0.9,0-1.9,0.6-2.6,1.2V18
				c0,1.6,0.1,1.7,1.5,1.8v0.6h-5.1v-0.6c1.6-0.2,1.7-0.3,1.7-1.8v-4.9c0-1.5-0.1-1.6-1.4-1.8v-0.5c1.1-0.2,2.2-0.5,3.3-1v1.9
				c0.5-0.4,1-0.7,1.6-1.1c0.7-0.4,1.3-0.7,1.9-0.7c1.9,0,3,1.3,3,3.6V18c0,1.6,0.1,1.7,1.5,1.8v0.6H140.6z"/>
		</g>
		<g>
			<circle class="st0" cx="13.3" cy="12.8" r="9.3"/>
			<path class="st1" d="M18.9,14.7c-0.6-1-1.6-1-1.7-1c0,0,0,0,0,0l4-0.8l-4-0.8l0,0c0,0,0.8-0.7,2-0.7c0.9,0,1.6-1.1,1.2-1.9
				c0,0-0.1,1.3-1.8,0.9c-1.2-0.3-1.8,0.4-1.9,0.4l0,0l2.3-3.4l-3.4,2.3c0,0,0,0,0,0c0-0.1,0.1-1.1,0.9-1.9c0.6-0.6,0.4-1.9-0.5-2.2
				c0,0,0.8,1-0.7,1.9c-1,0.6-1,1.6-1,1.7l0,0l-0.8-4l-0.8,4c0,0,0,0,0,0c0,0-0.7-0.8-0.7-2c0-0.9-1.1-1.7-1.9-1.2
				c0,0,1.3,0.1,0.9,1.8c-0.3,1.2,0.4,1.8,0.4,1.9l0,0L7.7,7.2l0,0l0,0L9.5,10l0.4,0.6c0,0,0,0,0,0c0,0-1.1-0.1-1.9-0.9
				c-0.6-0.6-1.9-0.4-2.2,0.5c0,0,1-0.8,1.9,0.7c0.6,1,1.6,1,1.7,1c0,0,0,0,0,0l-4,0.8l4,0.8v0c0,0-0.8,0.7-2,0.7
				c-0.9,0-1.7,1.1-1.2,1.9c0,0,0.1-1.3,1.8-0.9c1.2,0.3,1.8-0.4,1.9-0.4c0,0,0,0,0,0l-2.3,3.4l3.4-2.3c0,0-0.1,1.1-0.9,1.9
				c-0.6,0.6-0.4,1.9,0.5,2.2c0,0-0.8-1,0.7-1.9c1-0.6,1-1.6,1-1.7c0,0,0,0,0,0l0.8,4l0.8-4l0,0c0,0,0.7,0.8,0.7,2
				c0,0.9,1.1,1.6,1.9,1.2c0,0-1.3-0.1-0.9-1.8c0.3-1.2-0.4-1.8-0.4-1.9c0,0,0,0,0,0l3.4,2.3l-1.2-1.8L16.7,15l0,0
				c0,0,1.1,0.1,1.9,0.9c0.6,0.6,1.9,0.4,2.2-0.5C20.8,15.4,19.8,16.2,18.9,14.7z"/>
		</g>
	</g>
</g>
</svg>
